<svg width="41" height="29" viewBox="0 0 41 29" fill="none" xmlns="http://www.w3.org/2000/svg">
<g clip-path="url(#clip0_7_70055)">
<path d="M10.7936 15.9222C10.7453 15.9551 10.7101 15.988 10.6531 15.9705C10.6575 16.0758 10.6596 16.1988 10.5762 16.2844C10.4928 16.3678 10.3523 16.392 10.2469 16.3393C10.2886 16.482 10.214 16.651 10.0801 16.7169C9.94617 16.7827 9.76835 16.7388 9.68054 16.6181C9.74421 16.9715 9.15806 17.0132 8.95609 16.8859C8.87646 16.8348 8.81203 16.7632 8.76955 16.6786C8.72707 16.594 8.70809 16.4996 8.71461 16.4051C8.71461 16.3964 8.7168 16.3876 8.71241 16.3788C8.70802 16.3722 8.69924 16.3678 8.69266 16.3634C8.54337 16.2998 8.36995 16.2624 8.24481 16.1549C7.80575 15.7795 8.12846 14.886 8.12846 14.886C8.52362 14.8948 8.91877 14.9057 9.31393 14.9145L10.1152 14.9343C10.4313 14.9431 10.596 14.987 10.7738 15.2833C10.8506 15.4107 10.9297 15.5468 10.9209 15.6961C10.9165 15.7839 10.8638 15.8739 10.7936 15.9222Z" fill="url(#paint0_linear_7_70055)"/>
<path d="M10.7233 15.6895C10.8374 15.9507 10.6596 16.0758 10.6596 16.0758C10.6508 15.9507 10.5981 15.7948 10.5169 15.7026C10.4181 15.5621 10.304 15.5534 10.181 15.5248C10.181 15.5248 10.5696 15.3426 10.7233 15.6895ZM10.2491 15.9397C10.3413 15.999 10.4072 16.111 10.4225 16.2207C10.4357 16.572 10.1174 16.6949 10.1174 16.6949C10.1898 16.5632 10.2293 16.3986 10.2052 16.2515C10.1986 16.1768 10.1657 16.1088 10.1174 16.0517C10.0713 15.9924 10.0054 15.9529 9.93956 15.9134C9.93956 15.9156 10.102 15.8475 10.2491 15.9397ZM9.73978 16.2624C9.80125 16.3524 9.81003 16.4534 9.80345 16.5412C9.74857 16.8596 9.47415 16.9166 9.47415 16.9166C9.53343 16.7937 9.57294 16.6532 9.58392 16.5171C9.60807 16.3854 9.57294 16.2383 9.45659 16.1615C9.46098 16.1615 9.60587 16.0824 9.73978 16.2624ZM9.00655 16.1856C9.07022 16.1878 9.13608 16.212 9.17559 16.2602C9.21511 16.3107 9.22169 16.3876 9.18218 16.4359C9.15364 16.471 9.10315 16.4886 9.05924 16.4754C8.99338 16.46 8.97143 16.3788 8.97143 16.3788C8.94947 16.381 8.89459 16.4095 8.76068 16.4029C8.59823 16.3964 8.41602 16.2559 8.41602 16.2559C8.4248 16.2515 8.61579 16.2998 8.78702 16.2273C8.84849 16.2054 8.94069 16.1856 9.00655 16.1856Z" fill="#EDBD82"/>
<path d="M19.9566 27.5397C20.6548 27.5397 20.9577 27.5375 20.9577 27.5375C21.0565 27.5375 21.1399 27.4585 21.1421 27.3597L21.1509 27.0985C21.1509 26.3784 20.6284 26.4552 20.3386 26.4026C19.983 26.3367 19.7569 26.0798 19.6383 25.8976C19.5769 25.8054 17.4913 25.1337 17.4913 25.1337C17.0237 26.0996 16.9688 26.6199 16.9776 26.9799L16.9908 27.3641C16.993 27.4629 17.0764 27.5419 17.1752 27.5419L17.9172 27.5397C18.0204 27.5397 18.1016 27.4563 18.1016 27.3553C18.1016 27.3004 18.1192 27.2499 18.1543 27.2104C18.2048 27.1555 18.3475 27.1226 18.4704 27.1533C19.2234 27.3443 19.0741 27.5397 19.9566 27.5397ZM10.1041 27.5397C10.8022 27.5397 11.1052 27.5375 11.1052 27.5375C11.204 27.5375 11.2874 27.4585 11.2896 27.3597L11.2984 27.0985C11.2984 26.3784 10.7759 26.4552 10.4861 26.4026C10.1305 26.3367 9.90434 26.0798 9.7858 25.8976C9.72433 25.8054 7.63879 25.1337 7.63879 25.1337C7.17119 26.0996 7.1163 26.6199 7.12509 26.9799L7.13826 27.3641C7.14045 27.4629 7.22387 27.5419 7.32266 27.5419L8.06468 27.5397C8.16786 27.5397 8.24908 27.4563 8.24908 27.3553C8.24908 27.3004 8.26664 27.2499 8.30177 27.2104C8.35226 27.1555 8.49496 27.1226 8.61789 27.1533C9.37308 27.3443 9.2238 27.5397 10.1041 27.5397Z" fill="#455A64"/>
<path d="M19.9523 3.96657C19.5396 3.73387 19.1839 3.92266 18.9512 4.33099L17.9436 7.15415L14.835 8.12887C14.5431 8.49987 14.8021 9.25725 15.0655 9.66778C15.3751 10.1507 15.6275 10.3834 16.0973 10.2671C16.0973 10.2671 17.8338 9.61948 18.7185 9.20457C19.4649 8.85551 19.735 8.73477 19.9347 7.95105C20.1323 7.16732 20.5472 5.13228 20.5472 5.13228C20.7799 4.72614 20.365 4.19927 19.9523 3.96657Z" fill="#AEEAF5"/>
<path d="M21.0084 5.39131L20.723 3.6658L19.1555 3.36066L18.6265 5.16081C19.329 5.68768 21.0084 5.39131 21.0084 5.39131Z" fill="#00BFA5"/>
<path d="M16.1653 8.55035C19.3837 10.3461 19.7261 14.5018 19.7261 14.5018C19.7261 14.5018 17.9413 15.6895 16.4046 15.6895C14.8679 15.6895 15.3004 11.2659 15.3004 11.2659C15.3004 11.2659 12.2248 6.35285 16.1653 8.55035Z" fill="#AEEAF5"/>
<path d="M15.7682 8.80718C18.9272 10.5481 19.386 14.7126 19.386 14.7126C19.386 14.7126 17.9437 15.6895 16.407 15.6895C14.8703 15.6895 15.3028 11.2659 15.3028 11.2659C15.3028 11.2659 11.8166 6.62724 15.7682 8.80718Z" fill="#74CCF2"/>
<path d="M11.8516 15.6895C11.4125 17.2262 10.8922 19.4105 10.3829 20.2491C9.40818 21.8605 6.64429 24.778 6.64429 24.778C7.82975 26.4728 10.4927 26.4004 10.4927 26.4004C10.4927 26.4004 11.5047 22.8923 14.2093 19.7156C15.015 18.7695 15.3816 18.6729 15.6297 18.8573C16.1851 19.2722 17.9479 21.2194 17.9479 21.2194C17.612 22.2271 15.9963 25.6364 15.9963 25.6364C17.7328 26.9228 20.1696 26.3696 20.1696 26.3696C20.1696 26.3696 20.321 24.6551 20.5581 21.8978C20.6591 20.7277 20.6811 20.023 20.062 19.2393C19.6866 18.7629 18.387 17.2547 17.8513 16.3217C17.5352 15.7707 17.4276 14.8684 17.4276 14.2603C17.4276 14.2603 16.9578 14.324 16.8085 14.324H12.486C12.2401 14.3306 12.4531 13.5864 11.8516 15.6895Z" fill="#C2EDF5"/>
<path d="M14.5147 17.1252C14.5147 17.1252 14.9537 15.808 15.1096 14.2033C15.2918 12.3175 14.7232 10.3834 13.6717 8.80722C13.4104 8.41645 13.1975 8.17497 12.7584 8.35718C12.5235 8.45377 12.1745 8.78746 11.9242 8.80722C11.4852 8.84015 10.7805 9.77096 10.8441 10.2605C10.8441 10.2605 12.0471 12.7412 12.0801 13.4547C12.124 14.4294 11.3512 15.6851 11.0044 16.1988C10.9166 16.3283 10.9649 16.504 11.1054 16.5698C11.6235 16.8201 12.8682 17.2899 14.5147 17.1252Z" fill="#C2EDF5"/>
<path d="M14.2161 17.1779L14.4312 17.224C14.5607 16.2997 14.8 13.5271 13.4214 12.1155L14.159 11.312C13.3358 10.9059 12.2469 10.8927 12.2469 10.8927L12.0361 10.8312L12.0405 11.0837L12.2447 11.1122C12.2535 11.1122 13.0701 11.1254 13.788 11.391L13.1184 12.1199C13.1184 12.1199 14.7912 13.8476 14.2161 17.1779Z" fill="#74CCF2"/>
<path d="M13.4192 8.34401C11.9571 8.27815 11.3731 8.22546 10.3304 8.89723C9.61251 9.36044 8.94074 9.76218 8.28215 10.2012C7.62356 10.6403 7.1845 11.0794 7.40403 12.177C7.53355 12.8224 8.28215 15.2504 8.28215 15.2504C8.28215 15.2504 9.58177 14.9607 9.54665 14.4931L9.37761 11.7226L12.1986 10.7215C12.5762 10.4383 12.5367 9.21994 12.2227 8.80941L13.4192 8.34401Z" fill="#C2EDF5"/>
<path d="M15.0877 14.7126C15.316 10.0717 13.7266 9.5075 13.0241 10.0717C12.7387 10.3022 12.0033 11.2089 12.0033 11.2089C12.0033 11.2089 11.9045 8.72817 12.1679 8.29789C12.4313 7.86541 13.2085 7.79956 13.6739 7.72491C14.1195 7.65247 14.4774 7.80175 14.9252 7.90054C17.0503 8.37253 17.193 9.0882 17.193 9.0882C17.193 9.0882 16.1524 8.7611 16.126 9.1804C16.1107 9.41969 16.5827 9.81265 16.9317 10.7588C17.2808 11.705 17.43 12.4053 17.43 14.526L15.0877 14.7126Z" fill="url(#paint1_linear_7_70055)"/>
<path d="M7.12305 14.201L8.0341 15.4611L9.5752 14.9233L9.54008 13.4327C7.97043 13.1319 7.12305 14.201 7.12305 14.201Z" fill="#00BFA5"/>
<path d="M14.8878 11.5733C14.721 11.2418 14.5409 10.9235 14.3434 10.6359C14.1436 10.3571 13.8933 10.098 13.6321 10.0717C13.5662 10.0695 13.5026 10.0673 13.4345 10.0849C13.373 10.098 13.3072 10.131 13.2391 10.1727C13.0986 10.2517 12.9647 10.3681 12.8264 10.4778C12.6881 10.5898 12.5542 10.7127 12.4247 10.84C12.2842 10.9586 12.1568 11.0903 12.0119 11.211L11.9944 11.1979C12.2117 10.9015 12.4444 10.6139 12.7035 10.3527C12.833 10.2232 12.9713 10.098 13.125 9.99485C13.2764 9.88948 13.4696 9.82801 13.6584 9.85216C13.8472 9.8763 14.0163 9.97948 14.1502 10.1068C14.2863 10.2341 14.3939 10.3878 14.4883 10.5459C14.6749 10.8642 14.8088 11.211 14.9098 11.5645L14.8878 11.5733Z" fill="#009688"/>
<path d="M13.4146 7.72268L14.7055 7.91587L15.3158 10.0695C15.3158 10.0695 13.2126 8.98938 12.7363 8.07174L12.5848 7.86099L13.4146 7.72268ZM15.8009 5.14979L15.2367 5.12125L12.1787 4.97416L11.6145 4.94562C11.1622 4.92367 10.7759 5.29687 10.7539 5.77325C10.732 6.24963 11.0832 6.65796 11.5332 6.67991L12.0974 6.70845L15.1533 6.85773L15.7175 6.88627C16.1697 6.90823 16.5561 6.53502 16.5781 6.05864C16.6022 5.58007 16.251 5.17174 15.8009 5.14979Z" fill="#EDC391"/>
<path d="M13.8823 1.95347C12.5498 1.88761 11.2502 3.24212 11.1558 5.27716C11.0614 7.30124 12.2863 8.36376 13.5838 8.42743C14.879 8.49109 16.1962 7.5515 16.2906 5.52743C16.3828 3.49238 15.2149 2.01933 13.8823 1.95347Z" fill="#F9DDBD"/>
<path d="M11.9483 4.9808C11.9483 4.9808 12.1239 4.73932 12.5103 4.73932C12.9384 4.73932 13.1052 5.04227 13.1052 5.04227C13.1425 5.09715 13.125 5.17179 13.0701 5.20692C13.0372 5.22887 12.9954 5.23107 12.9603 5.2179L12.9384 5.20911C12.9384 5.20911 12.7408 5.04666 12.4488 5.07301C12.2227 5.09276 12.1415 5.15204 12.1349 5.15423C12.1063 5.1674 12.091 5.17179 12.091 5.17179C12.0273 5.19375 11.9549 5.16082 11.9329 5.09715C11.9254 5.07804 11.9229 5.05735 11.9256 5.037C11.9283 5.01665 11.9361 4.99732 11.9483 4.9808ZM15.441 5.31449C15.441 5.31449 15.3247 5.2157 15.0327 5.19375C14.7912 5.17618 14.6178 5.28815 14.6178 5.28815L14.5958 5.29473C14.5322 5.31449 14.4641 5.27717 14.4465 5.2135C14.4356 5.17399 14.4356 5.14545 14.4685 5.10593C14.5212 5.03788 14.7144 4.86006 15.0217 4.86006C15.3927 4.86006 15.5464 5.04227 15.6276 5.15862C15.6671 5.2157 15.6474 5.30132 15.5881 5.32766C15.5464 5.34742 15.4849 5.34961 15.441 5.31449Z" fill="#454140"/>
<path d="M12.875 5.69931C12.876 5.48471 12.7078 5.30992 12.4993 5.30891C12.2907 5.30791 12.1208 5.48106 12.1198 5.69566C12.1188 5.91026 12.287 6.08505 12.4955 6.08605C12.7041 6.08706 12.8739 5.91391 12.875 5.69931Z" fill="#312D2D"/>
<path d="M15.3928 5.82327C15.3938 5.60867 15.2256 5.43388 15.0171 5.43288C14.8085 5.43187 14.6387 5.60502 14.6376 5.81962C14.6366 6.03422 14.8048 6.20901 15.0133 6.21001C15.2219 6.21102 15.3918 6.03787 15.3928 5.82327Z" fill="#312D2D"/>
<path d="M14.3193 7.17389C14.069 7.3056 13.2699 7.26609 13.0307 7.11022C12.8945 7.02021 12.7453 7.14096 12.798 7.27048C12.8484 7.39781 13.2721 7.70734 13.6497 7.72491C14.0273 7.74247 14.4708 7.47684 14.5344 7.3539C14.5981 7.23316 14.462 7.09925 14.3193 7.17389Z" fill="#444444"/>
<path d="M13.9679 6.45822C13.9605 6.45402 13.9522 6.45175 13.9437 6.45164L13.4015 6.42529C13.3933 6.42549 13.3851 6.42697 13.3773 6.42968C13.3269 6.44725 13.2983 6.49554 13.3181 6.55043C13.3378 6.60531 13.4388 6.76117 13.6562 6.77215C13.8735 6.78313 13.9876 6.63604 14.014 6.58555C14.0403 6.53067 14.0162 6.48018 13.9679 6.45822Z" fill="#DBA689"/>
<path d="M16.3236 1.3322C16.306 1.32781 16.2863 1.31903 16.2665 1.31464C16.2006 1.30366 16.1106 1.30366 16.0777 1.36733C15.8889 1.7537 15.2523 1.88103 14.5915 1.79541C14.3698 1.76687 13.5531 2.18398 13.3643 2.33546C13.1404 2.51547 14.9603 3.47262 14.9603 3.47262C15.6321 3.56702 16.0777 4.49344 16.4246 4.07194C17.4344 2.84916 16.7253 1.55612 16.3236 1.3322Z" fill="url(#paint2_radial_7_70055)"/>
<path d="M13.8582 1.69218H13.856C10.5213 1.589 10.9845 5.40225 10.9845 5.40225C10.9845 5.40225 11.1207 5.7996 11.1821 5.97522C11.1909 6.00157 11.2282 5.99937 11.2348 5.97303C11.3182 5.6569 11.698 4.55705 11.8407 4.21898C11.9241 4.0192 12.1371 3.90944 12.35 3.95554C12.6749 4.02579 13.193 4.11799 13.766 4.13995H13.7792C14.3521 4.1597 14.8768 4.10702 15.2039 4.05872C15.4169 4.02799 15.6232 4.15312 15.6913 4.35728C15.8076 4.70414 16.1128 5.85668 16.1742 6.18378C16.1786 6.21012 16.216 6.21451 16.2269 6.19036L16.374 5.613C16.3696 5.613 17.1907 1.83049 13.8582 1.69218Z" fill="#312D2D"/>
<path d="M13.8582 1.69218H13.856C10.5213 1.589 10.9845 5.40225 10.9845 5.40225C10.9845 5.40225 11.1207 5.7996 11.1821 5.97522C11.1909 6.00157 11.2282 5.99937 11.2348 5.97303C11.3182 5.6569 11.698 4.55705 11.8407 4.21898C11.9241 4.0192 12.1371 3.90944 12.35 3.95554C12.6749 4.02579 13.193 4.11799 13.766 4.13995H13.7792C14.3521 4.1597 14.8768 4.10702 15.2039 4.05872C15.4169 4.02799 15.6232 4.15312 15.6913 4.35728C15.8076 4.70414 16.1128 5.85668 16.1742 6.18378C16.1786 6.21012 16.216 6.21451 16.2269 6.19036L16.374 5.613C16.3696 5.613 17.1907 1.83049 13.8582 1.69218Z" fill="url(#paint3_radial_7_70055)"/>
<path d="M19.5747 2.14661C19.5747 2.14661 19.5549 1.78439 19.8908 1.80195C20.264 1.82171 20.1564 2.17735 20.1564 2.17735L19.5747 2.14661Z" fill="url(#paint4_linear_7_70055)"/>
<path d="M19.0436 3.07307L18.9997 2.99184C18.9382 2.41009 18.9865 1.54294 19.0612 0.855809C19.0963 0.530904 19.2434 0.484802 19.329 0.484802C19.4432 0.484802 19.5837 0.552857 19.5946 0.866785C19.6034 1.0951 19.6012 1.31682 19.5968 1.53196C19.5924 1.79101 19.588 2.03688 19.6122 2.23007L19.5705 2.23666L19.0787 3.01599C19.0809 3.03355 19.0831 3.05111 19.0831 3.06868L19.0436 3.07307Z" fill="url(#paint5_linear_7_70055)"/>
<path d="M19.1336 2.59446C19.1709 2.53738 19.2587 2.38371 19.2895 2.342C19.621 2.15101 20.0425 2.31126 20.1105 2.28492L20.1588 2.00392C20.183 1.8744 20.3366 1.81073 20.4749 1.85025C20.7406 1.92709 20.7076 2.13564 20.7076 2.13564C20.7164 2.13783 20.8108 2.00831 21.0106 2.04783C21.4079 2.12686 21.3333 3.99287 20.0469 3.92262C20.0469 3.92262 19.9568 3.92481 19.8976 3.91384C19.2192 3.81066 19.1182 3.47697 19.0634 3.3233C19.026 3.21793 19.0063 3.10377 18.9975 2.99181C18.9909 2.87546 19.0612 2.70203 19.1336 2.59446Z" fill="url(#paint6_linear_7_70055)"/>
<path d="M20.2356 2.87106C20.352 2.90619 20.3827 2.84691 20.4464 2.8074C20.5057 2.98961 20.723 2.9918 20.723 2.99839C20.7142 3.0884 20.6044 3.3233 20.543 3.38696C20.3278 3.61088 20.172 3.52965 20.172 3.52965C20.172 3.52965 19.9437 3.20914 19.8844 3.12791C19.8251 3.04669 19.6253 2.89521 19.6231 2.88424C19.6166 2.80081 19.6407 2.69983 19.6846 2.6647C19.7153 2.63836 20.0512 2.63177 20.0512 2.63177C20.0512 2.63177 20.0842 2.82716 20.2356 2.87106Z" fill="url(#paint7_linear_7_70055)"/>
<path d="M20.9292 2.74593C20.9094 2.78105 20.8853 2.82496 20.8545 2.86228C20.8216 2.9018 20.7865 2.92594 20.736 2.93692C20.6877 2.9479 20.6504 2.91716 20.6284 2.87326C20.6109 2.83813 20.6087 2.79642 20.6087 2.75691C20.6087 2.72178 20.6109 2.68446 20.6174 2.64934C20.6438 2.48249 20.7316 2.33102 20.7557 2.16417C20.7579 2.14442 20.7601 2.12246 20.7448 2.1071C20.7398 2.1019 20.7332 2.09845 20.7261 2.09727C20.719 2.09608 20.7117 2.09722 20.7053 2.10051C20.6789 2.11368 20.6635 2.16637 20.6504 2.19052C20.6328 2.22784 20.6152 2.26735 20.5977 2.30467C20.5582 2.39029 20.5209 2.4781 20.4835 2.56591L20.4374 2.67787L20.4265 2.70422C20.4243 2.70861 20.4265 2.70861 20.4155 2.72837C20.4111 2.73934 20.4045 2.75032 20.3935 2.7613C20.3584 2.80301 20.3013 2.82057 20.2508 2.80301C20.2003 2.78984 20.1608 2.74154 20.1498 2.68666C20.1476 2.67348 20.1476 2.65812 20.1476 2.64714L20.1542 2.59006C20.1586 2.56152 20.1608 2.53079 20.163 2.50225L20.1652 2.46932C20.174 2.36175 20.1762 2.24979 20.1916 2.14442C20.1981 2.1049 20.2003 2.06538 20.2003 2.02587C20.2003 2.0105 20.1981 1.99733 20.1938 1.98416C20.1872 1.9666 20.163 1.94464 20.1433 1.95781C20.1279 1.9666 20.1323 1.98855 20.1301 2.00392C20.1213 2.0588 20.1059 2.11149 20.095 2.16637C20.0752 2.26077 20.0576 2.35736 20.0423 2.45176L20.0379 2.4781C20.0335 2.50884 20.0269 2.53957 20.0225 2.5703L20.0137 2.63397C20.0048 2.70058 20.0198 2.7682 20.056 2.82484C20.0921 2.88149 20.1471 2.92353 20.2113 2.94351C20.264 2.95887 20.3211 2.95887 20.3738 2.94351C20.4155 2.93033 20.4528 2.90399 20.4835 2.87326C20.4857 2.87984 20.4835 2.88862 20.4857 2.89521C20.4945 2.93033 20.5099 2.96326 20.534 2.98961C20.556 3.01376 20.5823 3.03571 20.6174 3.05108C20.6482 3.06644 20.6811 3.07522 20.714 3.07962C20.7492 3.08401 20.7865 3.07962 20.8194 3.06644C20.8765 3.04669 20.9248 3.00717 20.9709 2.9479C21.0126 2.89082 20.9753 2.9457 21.0499 2.79862C21.096 2.68007 21.1158 2.55055 21.1465 2.42761C21.1531 2.39688 21.1597 2.36395 21.1465 2.33541C21.1421 2.32443 21.1311 2.31345 21.118 2.31345C21.1026 2.31345 21.0938 2.32882 21.0872 2.34199C21.0719 2.37712 21.0587 2.41444 21.0543 2.45176C21.0499 2.48688 21.0367 2.51323 21.0236 2.54616C20.9928 2.61202 20.9643 2.68007 20.9292 2.74593Z" fill="#EDBD82"/>
<path d="M18.9996 2.99185C18.9799 3.32114 19.2367 3.64385 19.3662 3.73386C19.6516 3.92924 20.1302 3.949 20.1543 3.92485C20.1609 3.91826 20.1478 3.65702 20.1521 3.60214C20.1719 3.3892 20.0029 3.14552 19.8185 3.02917C19.7416 2.98087 19.5243 2.75475 19.8843 2.71963C20.1192 2.69548 20.2685 2.60108 20.3036 2.49571C20.3387 2.39033 20.207 2.22129 20.1434 2.21251C20.1434 2.21251 19.3487 1.94029 19.1138 2.57254C19.0655 2.69548 19.0062 2.87549 18.9996 2.99185Z" fill="url(#paint8_linear_7_70055)"/>
<path d="M20.0686 2.12246C19.9918 2.1049 19.9106 2.09392 19.8249 2.09173C19.7393 2.08953 19.6559 2.09392 19.5791 2.10709C19.4781 2.12466 19.4034 2.1488 19.3376 2.18612C19.1971 2.26515 19.1356 2.40126 19.0829 2.54835C19.0544 2.62518 19.0324 2.70641 19.0171 2.78764C19.0105 2.82715 19.0039 2.86667 18.9995 2.90618C18.9973 2.92814 19.0039 3.00058 18.9929 3.01595C19.129 2.84032 19.1707 2.60762 19.3047 2.432C19.3332 2.39468 19.3661 2.36175 19.4034 2.33321C19.5813 2.20369 19.8315 2.20588 20.0379 2.25198C20.1235 2.27174 20.1828 2.29589 20.2245 2.32882C20.2442 2.34419 20.2574 2.36394 20.2574 2.37931C20.2574 2.3837 20.2574 2.38809 20.2552 2.39907C20.2552 2.40785 20.253 2.41663 20.253 2.42322C20.2508 2.44078 20.2464 2.45615 20.242 2.47151C20.2267 2.52201 20.1872 2.60323 20.1367 2.62958C20.084 2.65811 20.0115 2.64275 19.9589 2.63177C19.9128 2.62299 19.8645 2.61201 19.8184 2.60323C19.7832 2.59665 19.7437 2.59006 19.7174 2.61201C19.7064 2.62079 19.6976 2.63397 19.691 2.64714C19.6625 2.70422 19.6405 2.76568 19.6296 2.82715C19.6186 2.88204 19.6361 2.91277 19.6691 2.95887C19.713 3.02034 19.7744 3.06644 19.8337 3.11693C19.9347 3.20255 20.0335 3.30353 20.0708 3.43086C20.0862 3.47916 20.0906 3.52965 20.1059 3.57575C20.1125 3.59331 20.1213 3.61088 20.1389 3.61746C20.163 3.62405 20.185 3.5999 20.1916 3.57575C20.2245 3.43964 20.1586 3.29914 20.0818 3.18938C19.9896 3.05986 19.882 2.95229 19.7415 2.87545C19.7744 2.83154 19.7964 2.78105 19.8074 2.72836C19.803 2.74812 19.9874 2.75032 20.005 2.75032C20.1235 2.75471 20.2311 2.73275 20.3167 2.64055C20.343 2.61201 20.365 2.57908 20.3782 2.54396C20.4001 2.48469 20.3957 2.41883 20.3913 2.35516C20.3869 2.29589 20.3474 2.26296 20.3057 2.22564C20.2289 2.16637 20.1433 2.14002 20.0686 2.12246Z" fill="#EDBD82"/>
</g>
<path d="M25.9984 2.74375C25.3826 1.83489 24.2678 1.34314 23.09 1.45949C21.9123 1.57585 20.9211 2.27834 20.5031 3.29038C20.2491 3.90726 20.1637 4.64488 20.2469 5.54935C20.3233 6.40113 20.2851 6.62505 19.6962 7.05094C18.8264 7.68538 18.4735 8.55692 18.7747 9.32747C19.0601 10.0607 19.8625 10.5063 20.8582 10.5063C20.9548 10.5063 21.0537 10.502 21.1549 10.4932C23.2586 10.3132 24.8004 9.37796 25.7399 7.71392C25.7647 7.67221 25.7826 7.63928 25.7961 7.61513C26.6165 6.32429 26.9694 4.17728 25.9984 2.74375Z" fill="#312D2D"/>
<path d="M26.5244 5.60864C26.4502 6.41212 25.9984 7.30122 25.7939 7.61735C25.7804 7.6415 25.7624 7.67443 25.7377 7.71614C24.7982 9.38018 23.2564 10.3154 21.1527 10.4954C21.0538 10.5042 20.9549 10.5086 20.8582 10.5086C19.8603 10.5086 19.0287 10.0739 18.7747 9.32969C18.4286 8.31545 19.0871 7.50539 19.4895 7.2178C20.1075 6.77655 20.3548 6.5636 20.2671 5.70524C20.7706 8.96307 26.3805 6.43408 26.5019 5.75573C26.5109 5.70743 26.5199 5.65694 26.5244 5.60864Z" fill="url(#paint9_radial_7_70055)"/>
<path d="M26.8501 7.81055C26.4433 8.05203 25.9241 8.14204 25.5173 8.14204C25.3802 8.14204 25.2543 8.13106 25.1532 8.1135C24.7419 8.03886 24.3643 8.00812 24.0182 8.00812C22.0673 8.00812 21.1121 8.99821 21.1121 8.99821L22.4404 11.0179C23.0832 11.2111 23.753 11.3186 24.3351 11.3186C24.6273 11.3186 24.897 11.2923 25.133 11.2352C26.468 10.9125 27.1041 9.93121 27.1041 9.93121L26.8501 7.81055Z" fill="url(#paint10_linear_7_70055)"/>
<path d="M30.5542 6.52627H30.5565C30.0822 5.13225 29.3473 4.3573 28.882 3.26404C28.8753 3.24428 28.8685 3.23111 28.8618 3.21135C28.9562 3.12793 29.0573 3.03573 29.1809 2.92157C29.1809 2.92157 29.826 2.24103 30.307 1.88758C30.4059 1.81294 30.3587 1.62634 30.2171 1.62634H30.2036C29.8687 1.69001 29.0753 2.35299 29.0753 2.35299C29.0393 2.252 28.9652 2.21468 28.8843 2.21468C28.7606 2.21468 28.6146 2.29811 28.5246 2.37494L27.8391 2.96548C27.6503 3.12793 27.6436 3.34307 27.7335 3.49894C27.7402 3.52967 27.7492 3.5626 27.7627 3.59992L28.5224 5.84353C28.5988 6.07842 28.6685 6.31771 28.7314 6.557C27.9111 7.12339 26.0164 8.20567 26.0164 8.20567C26.0164 8.20567 26.5468 9.84337 26.7333 9.84337H26.7446C26.9873 9.84337 27.4143 9.70726 27.6031 9.56237C28.6595 8.76109 29.7676 7.87857 30.2845 7.46147L30.2823 7.46366C30.4149 7.36487 30.5182 7.23315 30.5722 7.06631C30.6329 6.88191 30.6194 6.6953 30.5542 6.52627Z" fill="url(#paint11_linear_7_70055)"/>
<path d="M22.2 14.5501C22.1978 14.5435 22.1933 14.5392 22.1888 14.5326L22.0967 14.5984C22.0944 14.5962 22.0944 14.5962 22.0944 14.594L22.1888 14.5326C22.1821 14.5216 22.1753 14.5128 22.1663 14.5018C22.1571 14.4891 22.1465 14.4774 22.1349 14.4667C22.1214 14.4491 22.1101 14.436 22.0922 14.4162L20.4537 12.6775C20.3458 12.5612 20.2447 12.4404 20.1413 12.3197C20.9392 11.6282 22.4698 10.4888 22.4698 10.4888C22.4698 10.4888 21.7438 8.96527 21.5527 8.96527H21.5483C21.3078 8.96527 20.8965 9.16943 20.7256 9.33847C19.7817 10.2649 18.7995 11.2703 18.341 11.7489L18.3432 11.7423C18.2263 11.8565 18.1409 11.9992 18.1072 12.1704C18.0578 12.4339 18.1454 12.6863 18.3162 12.8685H18.314L18.3387 12.8927C18.341 12.8949 18.3432 12.8993 18.3477 12.9015C19.3546 13.9552 20.2986 14.3482 21.1752 15.1516C21.2066 15.1824 21.2381 15.2065 21.2718 15.2263C21.2448 15.3536 21.2156 15.4963 21.1841 15.6697C21.1841 15.6697 21.0763 16.5896 20.9032 17.1538C20.874 17.246 20.9594 17.3404 21.0515 17.3404C21.083 17.3404 21.1145 17.3294 21.1414 17.3052C21.3729 17.0616 21.6112 16.0671 21.6112 16.0671C21.6539 16.0956 21.6966 16.1088 21.7348 16.1088C21.8966 16.1088 22.009 15.8849 22.0427 15.7312L22.2383 14.8597C22.2495 14.8048 22.2517 14.7543 22.2472 14.7082C22.2517 14.6599 22.236 14.6072 22.2 14.5501Z" fill="url(#paint12_linear_7_70055)"/>
<path d="M32.6062 15.1231L32.6107 15.2087C32.6646 15.1626 32.6646 15.1275 32.6062 15.1231Z" fill="url(#paint13_linear_7_70055)"/>
<path d="M32.6108 15.2087C32.3253 15.4612 30.5183 16.0978 28.1943 14.8355C27.2953 14.3482 26.7379 13.6544 26.6188 12.8576C26.4996 12.0607 27.0346 11.547 27.0907 10.8269C27.1087 10.5898 27.0863 10.3922 27.0346 10.2254C27.3807 10.0629 27.7785 9.74242 27.7808 9.66338C27.7965 9.34067 27.6279 9.03772 27.4504 8.7677C27.2593 8.47572 27.0435 8.19473 26.7581 7.99056C26.6839 7.93787 26.5176 7.84128 26.4277 7.86762C25.677 8.08716 25.5354 8.07179 24.8791 8.07179L24.6769 8.04764C25.032 8.44938 25.8748 10.2144 25.0589 10.5854C24.2431 10.9564 22.4607 8.24522 22.4607 8.24522C21.9078 8.3945 20.7548 9.04211 20.2064 9.66558C20.1727 9.7029 20.2267 9.76437 20.2514 9.80827C20.5323 10.3286 21.0268 10.8423 21.4988 11.2089C21.5482 11.2484 21.6022 11.2879 21.6629 11.2989C21.7168 11.3099 21.9078 11.1891 22.0427 11.0947C22.3506 11.4416 22.6293 11.7709 22.7956 11.997C22.9844 12.2253 23.4834 13.0968 23.3013 13.8147C21.9798 16.5281 23.2429 17.055 23.3845 18.0012C23.6744 19.944 21.3527 24.7188 17.4194 24.7188L19.2737 25.7616L22.7956 25.5354L24.742 23.8999L27.4166 23.5092L28.3606 21.619L29.2979 19.0637L32.7074 16.8684L32.6108 15.2087Z" fill="url(#paint14_linear_7_70055)"/>
<mask id="mask0_7_70055" style="mask-type:luminance" maskUnits="userSpaceOnUse" x="17" y="7" width="16" height="19">
<path d="M32.6063 15.1231C32.9816 15.1582 30.9543 16.3349 28.1943 14.8355C27.2953 14.3482 26.7379 13.6544 26.6188 12.8576C26.4996 12.0607 27.0346 11.547 27.0907 10.8269C27.1829 9.66777 26.2929 9.45703 25.8478 8.9521C25.4028 8.44938 24.8679 7.94666 24.8679 7.94666H24.6004C24.9556 8.3484 25.8748 10.21 25.0589 10.5832C24.2431 10.9564 22.4225 8.18814 22.4225 8.18814L22.0989 8.28034C21.2943 8.54597 20.4874 9.27701 20.4986 9.35604C20.5121 9.44605 22.2517 11.2594 22.7956 11.997C22.9844 12.2253 23.4834 13.0968 23.3013 13.8147C21.9798 16.5281 23.2429 17.055 23.3845 18.0012C23.6744 19.944 21.3527 24.7188 17.4194 24.7188L19.2737 25.7616L22.7956 25.5354L24.742 23.8999L27.4166 23.5092L28.3606 21.619L29.2979 19.0637L32.7074 16.8684L32.6063 15.1231Z" fill="white"/>
</mask>
<g mask="url(#mask0_7_70055)">
<path d="M23.4296 21.6037C23.1149 21.7837 22.7845 22.1195 22.4451 22.6794C22.1507 23.1645 21.4495 24.3961 20.9078 24.4971C20.4021 24.5915 19.6963 24.3632 19.4424 23.9109L19.3345 23.7199L18.9412 23.9307L19.049 24.1239C19.3525 24.6661 20.02 24.912 20.6201 24.912C20.7482 24.912 20.8718 24.901 20.9887 24.879C21.7619 24.7342 22.353 23.5575 22.6452 23.0635C22.8609 22.6991 23.0789 22.4445 23.3015 22.271C23.2812 22.0581 23.3284 21.8276 23.4296 21.6037ZM28.0978 15.8454C28.5855 15.819 29.026 15.9617 29.026 15.9617L28.8575 15.852C28.5945 15.729 28.0281 15.4502 27.5269 15.4853C27.6932 15.6829 27.9135 15.7576 28.0978 15.8454ZM26.2458 19.0637C26.6975 20.0933 27.5224 21.8825 26.7695 22.394C26.6189 22.4971 26.2885 22.4445 25.8525 22.2205C25.5176 22.0493 25.149 21.7683 24.7511 21.5905C24.8051 21.7639 24.8545 21.9395 24.8725 22.1108C25.1894 22.2337 25.4906 22.4071 25.767 22.5498C26.266 22.8067 26.6661 22.9406 27.0482 22.6201C28.0146 21.81 27.0886 20.4336 26.6391 19.3315C26.2053 18.2712 26.2435 17.4962 26.5874 16.8903C26.4031 16.8398 26.23 16.7784 26.0637 16.7213C25.785 17.4304 25.9019 18.28 26.2458 19.0637Z" fill="#FF8F00"/>
<path d="M27.3134 16.1C27.5427 15.9266 27.8281 15.8607 28.0978 15.8454C27.9113 15.7576 27.6933 15.6829 27.5292 15.4854C27.4056 15.4941 27.2842 15.5205 27.1741 15.5754C26.601 15.8586 26.2503 16.2603 26.066 16.7213C26.2301 16.7784 26.4054 16.8399 26.5897 16.8903C26.7605 16.5896 27.0078 16.3305 27.3134 16.1ZM23.4296 21.6037C23.3262 21.8276 23.2813 22.0603 23.2993 22.271C23.8297 21.8561 24.3691 21.9154 24.8726 22.1108C24.8524 21.9395 24.8052 21.7639 24.7512 21.5905C24.3422 21.4061 23.9016 21.3336 23.4296 21.6037Z" fill="#FFB600"/>
</g>
<mask id="mask1_7_70055" style="mask-type:luminance" maskUnits="userSpaceOnUse" x="17" y="7" width="16" height="19">
<path d="M32.6063 15.1231C32.9816 15.1582 30.9543 16.3349 28.1943 14.8355C27.2953 14.3482 26.7379 13.6544 26.6188 12.8576C26.4996 12.0607 27.0346 11.547 27.0907 10.8269C27.1829 9.66777 26.2929 9.45703 25.8478 8.9521C25.4028 8.44938 24.8679 7.94666 24.8679 7.94666H24.6004C24.9556 8.3484 25.8748 10.21 25.0589 10.5832C24.2431 10.9564 22.4225 8.18814 22.4225 8.18814L22.0989 8.28034C21.2943 8.54597 20.4874 9.27701 20.4986 9.35604C20.5121 9.44605 22.2517 11.2594 22.7956 11.997C22.9844 12.2253 23.4834 13.0968 23.3013 13.8147C21.9798 16.5281 23.2429 17.055 23.3845 18.0012C23.6744 19.944 21.3527 24.7188 17.4194 24.7188L19.2737 25.7616L22.7956 25.5354L24.742 23.8999L27.4166 23.5092L28.3606 21.619L29.2979 19.0637L32.7074 16.8684L32.6063 15.1231Z" fill="white"/>
</mask>
<g mask="url(#mask1_7_70055)">
<path d="M30.5723 16.7169V16.6093C31.2623 16.4842 31.0488 15.5973 31.024 15.4502L31.4533 15.3755C31.4668 15.4568 31.6017 16.1702 31.2263 16.5588C31.1184 16.6708 30.5723 16.7235 30.5723 16.7169Z" fill="#FF8F00"/>
</g>
<path d="M33.4739 14.5413C34.7213 14.392 35.6877 15.6895 35.2337 16.842C35.0831 17.2218 34.8067 17.4501 34.5055 17.5643C34.5033 17.5665 34.4988 17.5665 34.4965 17.5686C34.265 17.6609 34.292 17.9989 34.5325 18.067C34.7145 18.1197 35.0135 17.9397 35.3214 18.1065C35.672 18.2953 35.9507 18.5895 35.9417 19.1251C35.9305 19.731 35.6698 20.3194 35.0966 20.4686C34.2403 20.6882 34.0582 21.4456 34.029 22.3873C34.0178 22.7649 33.9189 23.3577 33.4334 23.6848C31.7725 24.8066 30.6981 23.2567 29.4282 23.9219C27.2324 25.07 28.5899 27.4563 23.0586 25.8559C21.7415 25.4761 19.5591 28.161 17.6667 27.0392C16.1608 26.1457 16.6126 25.0503 17.1969 24.6639C18.3702 23.8933 18.5635 25.4652 21.1864 25.3225C22.5484 25.2478 22.2203 23.0064 24.052 22.4686C25.4972 22.0449 26.0928 24.0668 27.1986 23.1272C28.9405 21.6453 26.412 19.3403 27.0863 17.6938C27.5043 16.6708 28.3786 16.1022 29.2776 16.3217C30.1767 16.5412 30.1025 17.2174 30.6824 17.382C31.3184 17.5643 31.7073 16.954 31.8444 16.5039C32.0736 15.7509 32.2377 14.6906 33.4739 14.5413Z" fill="url(#paint15_radial_7_70055)"/>
<path d="M33.9953 25.7791C34.3594 26.003 35.0719 26.6967 35.2674 27.0699C35.3236 27.1775 35.3753 27.4388 35.3011 27.5332C35.2382 27.6122 33.8289 27.6934 32.8175 27.1336C32.7299 27.0853 32.6175 26.9053 32.5815 26.8351C32.5141 26.7033 32.413 26.688 32.3972 26.8263C32.2646 26.8197 32.1702 26.8307 32.0376 26.8241C31.9432 25.9262 31.7859 26.025 31.8016 25.3949C31.8151 24.8834 32.1747 24.7737 32.3163 24.721C32.3388 24.7122 33.4581 25.3927 33.9953 25.7791Z" fill="#DD2C00"/>
<path d="M34.0042 25.351C33.8064 24.89 33.6064 24.4268 33.4086 23.9658C32.622 22.1349 32.2601 21.3402 31.3813 19.5489C31.2981 19.371 31.143 19.303 30.961 19.303C30.7048 19.303 30.3924 19.4369 30.1361 19.5906C29.6799 19.865 29.2686 20.1218 29.5855 20.6136C30.2215 21.5949 31.6488 23.1887 32.141 24.2468C32.4107 24.8264 32.4107 25.4389 32.8445 25.9108C33.0378 26.1216 33.1771 26.2643 33.4625 26.3126C33.5592 26.3302 33.6581 26.3411 33.7502 26.3411C33.957 26.3411 34.1301 26.2819 34.166 26.0887C34.1997 25.9108 34.0761 25.5179 34.0042 25.351Z" fill="url(#paint16_linear_7_70055)"/>
<path d="M24.9735 27.0458C24.8791 26.4882 24.3981 25.5728 23.8789 25.5728C23.3597 25.5728 22.836 26.4882 22.7416 27.0458C22.7281 27.1204 22.7236 27.3619 22.7236 27.4212C22.7236 27.4234 22.7259 27.4256 22.7259 27.4256C22.7304 27.509 22.8225 27.6232 22.9529 27.6232C23.2675 27.6232 23.562 27.6232 23.8542 27.6254C24.1463 27.6254 24.4408 27.6232 24.7554 27.6232C24.8925 27.6232 24.9869 27.498 24.9824 27.4146V27.4124C24.9824 27.3553 24.9847 27.1182 24.9735 27.0458Z" fill="#B41301"/>
<path d="M24.4027 24.0294C24.1307 24.0294 23.888 24.0909 23.852 24.2226C23.7688 24.5321 23.5216 25.3422 23.4385 25.7879C23.3103 26.2269 23.4677 26.3916 23.9262 26.475C23.9756 26.4838 24.0206 26.4882 24.0633 26.4882C24.3622 26.4882 24.4881 26.2664 24.5892 25.9306L25.214 24.429C25.295 24.1721 24.8162 24.0294 24.4027 24.0294Z" fill="#EDBD82"/>
<path d="M24.4161 7.67664L23.0811 7.79079L23.1462 8.50646C23.1732 8.81161 23.4384 9.04212 23.7508 9.04212C23.7688 9.04212 23.7868 9.04212 23.8048 9.03992L23.9261 9.02894C24.0054 9.02258 24.0827 9.00099 24.1534 8.96542C24.2241 8.92984 24.287 8.88098 24.3384 8.82163C24.3897 8.76228 24.4286 8.69362 24.4527 8.61957C24.4769 8.54552 24.4858 8.46754 24.479 8.39011L24.4161 7.67664Z" fill="#EDC391"/>
<path d="M25.9645 5.07739C25.7982 3.24431 24.6789 2.41229 23.4922 2.41229C23.4203 2.41229 23.3461 2.41449 23.2719 2.42107C22.0088 2.52864 20.921 3.54727 21.0963 5.49231C21.2356 7.05756 22.3122 7.89617 23.2022 8.12009C23.3663 8.1618 23.5236 8.18156 23.6675 8.18156C23.7079 8.18156 23.7484 8.17936 23.7889 8.17716C23.9642 8.1618 24.1597 8.10911 24.3597 8.0213C25.1958 7.65029 26.1039 6.64045 25.9645 5.07739Z" fill="#F9DDBD"/>
<path d="M23.3282 6.1772C23.3349 6.17281 23.3439 6.17061 23.3507 6.16842L23.8631 6.12451C23.8721 6.12451 23.8789 6.12671 23.8879 6.1289C23.935 6.14427 23.9665 6.18818 23.9485 6.24086C23.9306 6.29355 23.8407 6.44283 23.6361 6.46039C23.4293 6.47796 23.3147 6.34624 23.29 6.29794C23.2608 6.24964 23.2833 6.19915 23.3282 6.1772Z" fill="#DBA689"/>
<path d="M24.7744 5.75446C24.9723 5.73756 25.1182 5.5623 25.1004 5.36301C25.0825 5.16372 24.9077 5.01586 24.7098 5.03276C24.512 5.04966 24.366 5.22491 24.3839 5.4242C24.4017 5.62349 24.5766 5.77135 24.7744 5.75446Z" fill="#312D2D"/>
<path d="M22.3874 5.95856C22.5853 5.94166 22.7312 5.76641 22.7134 5.56711C22.6956 5.36782 22.5207 5.21996 22.3228 5.23686C22.125 5.25376 21.9791 5.42901 21.9969 5.6283C22.0147 5.8276 22.1896 5.97546 22.3874 5.95856Z" fill="#312D2D"/>
<path d="M24.1531 4.78976C24.2138 4.69536 24.3599 4.55486 24.6656 4.52852C24.9712 4.50217 25.1398 4.61633 25.2162 4.69975C25.2499 4.73707 25.2454 4.78098 25.2274 4.81171C25.2095 4.83806 25.1555 4.86659 25.0903 4.85123C25.0252 4.83586 24.8971 4.78317 24.6903 4.80074C24.4835 4.82049 24.3666 4.89294 24.3037 4.91928C24.243 4.94563 24.1823 4.92806 24.1621 4.90391C24.148 4.88848 24.1395 4.86894 24.1379 4.84832C24.1362 4.82769 24.1416 4.80712 24.1531 4.78976ZM21.7662 4.99392C21.8269 4.89952 21.973 4.75902 22.2786 4.73268C22.5843 4.70634 22.7529 4.82049 22.8293 4.90391C22.863 4.94123 22.8585 4.98514 22.8405 5.01588C22.8225 5.04222 22.7686 5.07076 22.7034 5.05539C22.6382 5.04002 22.5101 4.98734 22.3034 5.0049C22.0966 5.02466 21.9797 5.0971 21.9168 5.12345C21.8561 5.14979 21.7954 5.13223 21.7752 5.10808C21.7527 5.07954 21.7392 5.03344 21.7662 4.99392Z" fill="#454140"/>
<path d="M23.0494 6.7853C23.2922 6.89946 24.0496 6.8358 24.2699 6.68212C24.3957 6.59431 24.5418 6.69969 24.4969 6.82262C24.4542 6.94337 24.0631 7.24632 23.7057 7.27705C23.3483 7.30779 22.9168 7.07289 22.8516 6.96312C22.7865 6.84897 22.9101 6.71944 23.0494 6.7853Z" fill="#444444"/>
<path d="M20.5863 6.44945C20.6919 5.34961 20.5458 4.97201 20.5773 4.57027C20.6043 4.23 20.7166 1.99079 23.2115 1.77784C26.0636 1.53417 26.2277 4.0917 26.2277 4.0917L26.2974 5.00275C26.2974 5.00275 26.2771 5.54718 26.0299 6.20578C25.7804 6.86656 25.5849 7.11244 25.6523 6.78095C25.7265 6.41433 25.7917 5.9138 25.749 5.43742C25.731 5.22886 25.7287 4.44734 25.2725 4.38806C23.598 4.16853 22.5934 3.39578 22.5934 3.39578C22.3978 3.93144 21.6876 4.50002 21.4336 4.71297C21.2246 4.88859 21.3145 5.53182 21.3437 5.80623L21.5572 7.05536C21.274 6.91047 20.7549 6.72606 20.5863 6.44945Z" fill="#312D2D"/>
<path d="M26.5265 5.59765C26.5265 5.60204 26.5265 5.60423 26.5243 5.60862C26.5198 5.65692 26.5108 5.70741 26.5018 5.75571C26.3804 6.43406 20.7705 8.96305 20.267 5.70522C20.258 5.65472 20.2513 5.60204 20.2468 5.54935C20.2446 5.52959 20.2423 5.50983 20.2423 5.49227C20.2378 5.45495 20.2356 5.41983 20.2356 5.3847C20.1681 4.55707 20.2648 3.86994 20.5053 3.29038C20.9211 2.27834 21.9123 1.57585 23.09 1.45949C24.2677 1.34314 25.3803 1.83489 25.9983 2.74375C26.5512 3.5604 26.6749 4.60756 26.5265 5.59765Z" fill="url(#paint17_radial_7_70055)"/>
<defs>
<linearGradient id="paint0_linear_7_70055" x1="8.72758" y1="14.8415" x2="10.4596" y2="16.7557" gradientUnits="userSpaceOnUse">
<stop offset="0.5" stop-color="#F9DDBD"/>
<stop offset="1" stop-color="#FFD29C"/>
</linearGradient>
<linearGradient id="paint1_linear_7_70055" x1="14.7074" y1="15.3784" x2="14.7074" y2="9.9841" gradientUnits="userSpaceOnUse">
<stop offset="0.116" stop-color="#00AB94"/>
<stop offset="0.377" stop-color="#00B29A"/>
<stop offset="1" stop-color="#00BFA5"/>
</linearGradient>
<radialGradient id="paint2_radial_7_70055" cx="0" cy="0" r="1" gradientUnits="userSpaceOnUse" gradientTransform="translate(14.0209 3.44246) rotate(9.735) scale(1.63923)">
<stop stop-color="#454140" stop-opacity="0"/>
<stop offset="1" stop-color="#454140"/>
</radialGradient>
<radialGradient id="paint3_radial_7_70055" cx="0" cy="0" r="1" gradientUnits="userSpaceOnUse" gradientTransform="translate(13.6826 4.66382) scale(2.94171 2.98466)">
<stop offset="0.646" stop-color="#454140" stop-opacity="0"/>
<stop offset="1" stop-color="#454140"/>
</radialGradient>
<linearGradient id="paint4_linear_7_70055" x1="19.5747" y1="1.98811" x2="20.1716" y2="1.98811" gradientUnits="userSpaceOnUse">
<stop offset="0.5" stop-color="#F9DDBD"/>
<stop offset="1" stop-color="#FFD29C"/>
</linearGradient>
<linearGradient id="paint5_linear_7_70055" x1="18.9718" y1="1.77959" x2="19.6142" y2="1.77959" gradientUnits="userSpaceOnUse">
<stop offset="0.5" stop-color="#F9DDBD"/>
<stop offset="1" stop-color="#FFD29C"/>
</linearGradient>
<linearGradient id="paint6_linear_7_70055" x1="18.999" y1="2.88139" x2="21.2253" y2="2.88139" gradientUnits="userSpaceOnUse">
<stop offset="0.5" stop-color="#F9DDBD"/>
<stop offset="1" stop-color="#FFD29C"/>
</linearGradient>
<linearGradient id="paint7_linear_7_70055" x1="19.9744" y1="2.74437" x2="20.543" y2="3.37583" gradientUnits="userSpaceOnUse">
<stop stop-color="#FFD29C"/>
<stop offset="0.355" stop-color="#FED4A3" stop-opacity="0.645"/>
<stop offset="0.884" stop-color="#FADBB8" stop-opacity="0.116"/>
<stop offset="1" stop-color="#F9DDBD" stop-opacity="0"/>
</linearGradient>
<linearGradient id="paint8_linear_7_70055" x1="19.2043" y1="3.57279" x2="20.4149" y2="2.4826" gradientUnits="userSpaceOnUse">
<stop offset="0.5" stop-color="#F9DDBD"/>
<stop offset="1" stop-color="#FFD29C"/>
</linearGradient>
<radialGradient id="paint9_radial_7_70055" cx="0" cy="0" r="1" gradientUnits="userSpaceOnUse" gradientTransform="translate(22.7816 7.26975) rotate(147.792) scale(4.52438 2.86919)">
<stop offset="0.782" stop-color="#454140" stop-opacity="0"/>
<stop offset="1" stop-color="#454140"/>
</radialGradient>
<linearGradient id="paint10_linear_7_70055" x1="24.2874" y1="11.3724" x2="24.003" y2="8.20075" gradientUnits="userSpaceOnUse">
<stop offset="0.074" stop-color="#F9DDBD"/>
<stop offset="1" stop-color="#FFD29C"/>
</linearGradient>
<linearGradient id="paint11_linear_7_70055" x1="28.5046" y1="5.6791" x2="26.7123" y2="6.9024" gradientUnits="userSpaceOnUse">
<stop offset="0.232" stop-color="#F9DDBD"/>
<stop offset="1" stop-color="#FFD29C"/>
</linearGradient>
<linearGradient id="paint12_linear_7_70055" x1="19.8444" y1="14.3679" x2="22.2953" y2="11.9005" gradientUnits="userSpaceOnUse">
<stop offset="0.232" stop-color="#F9DDBD"/>
<stop offset="1" stop-color="#FFD29C"/>
</linearGradient>
<linearGradient id="paint13_linear_7_70055" x1="32.6707" y1="15.126" x2="32.5223" y2="15.2271" gradientUnits="userSpaceOnUse">
<stop stop-color="#BC1B00"/>
<stop offset="0.29" stop-color="#E31C00"/>
<stop offset="0.693" stop-color="#BC1B00"/>
<stop offset="0.914" stop-color="#DD1C00"/>
</linearGradient>
<linearGradient id="paint14_linear_7_70055" x1="22.8354" y1="9.17098" x2="24.5673" y2="18.1595" gradientUnits="userSpaceOnUse">
<stop stop-color="#BC1B00"/>
<stop offset="0.213" stop-color="#E31C00"/>
<stop offset="0.507" stop-color="#BC1B00"/>
<stop offset="0.875" stop-color="#DD1C00"/>
</linearGradient>
<radialGradient id="paint15_radial_7_70055" cx="0" cy="0" r="1" gradientUnits="userSpaceOnUse" gradientTransform="translate(26.5817 22.1797) scale(10.6434 10.3959)">
<stop stop-color="#892002"/>
<stop offset="0.537" stop-color="#B42002"/>
<stop offset="1" stop-color="#892002"/>
</radialGradient>
<linearGradient id="paint16_linear_7_70055" x1="30.2218" y1="19.6018" x2="32.801" y2="24.5737" gradientUnits="userSpaceOnUse">
<stop stop-color="#FFD29C"/>
<stop offset="0.401" stop-color="#F9DDBD"/>
</linearGradient>
<radialGradient id="paint17_radial_7_70055" cx="0" cy="0" r="1" gradientUnits="userSpaceOnUse" gradientTransform="translate(23.3077 5.27164) rotate(90) scale(3.89469 3.65726)">
<stop offset="0.869" stop-color="#454140" stop-opacity="0"/>
<stop offset="1" stop-color="#454140"/>
</radialGradient>
<clipPath id="clip0_7_70055">
<rect width="28.0999" height="28.0999" fill="white" transform="translate(0.763184 0.403564)"/>
</clipPath>
</defs>
</svg>
