<svg width="291" height="37" viewBox="0 0 291 37" fill="none" xmlns="http://www.w3.org/2000/svg">
<path d="M281.941 29.7879C281.373 29.7879 280.852 29.6003 280.379 29.2252C279.925 28.825 279.698 28.1122 279.698 27.0867C279.698 26.7116 279.736 26.3239 279.811 25.9237C279.887 25.4985 279.972 25.0859 280.067 24.6857C279.745 25.1109 279.348 25.6111 278.875 26.1863C278.402 26.7366 277.881 27.2743 277.313 27.7995C276.764 28.3248 276.206 28.7625 275.638 29.1126C275.09 29.4378 274.569 29.6003 274.077 29.6003C273.471 29.6003 272.979 29.3127 272.601 28.7374C272.336 28.3623 272.203 27.8746 272.203 27.2743C272.203 26.549 272.393 25.7487 272.771 24.8733C273.169 23.9729 273.698 23.085 274.361 22.2096C275.042 21.3342 275.809 20.5339 276.66 19.8086C277.531 19.0833 278.43 18.508 279.357 18.0828C280.36 17.6076 281.25 17.37 282.026 17.37C283.388 17.37 284.07 18.1454 284.07 19.696C284.07 19.7961 284.06 19.9211 284.041 20.0712C284.041 20.1963 284.032 20.3338 284.013 20.4839C283.918 20.9841 283.776 21.3217 283.587 21.4968C283.568 21.5218 283.521 21.5593 283.445 21.6094C283.37 21.6344 283.303 21.5969 283.246 21.4968C283.19 21.3718 283.18 21.1967 283.218 20.9716C283.275 20.6965 283.303 20.4589 283.303 20.2588C283.303 19.5585 283.01 19.2083 282.423 19.2083C282.101 19.2083 281.695 19.2959 281.203 19.4709C280.71 19.646 280.181 19.8836 279.613 20.1837C279.064 20.4589 278.534 20.759 278.023 21.0841C277.531 21.4093 277.115 21.7344 276.774 22.0596C275.903 22.8849 275.137 23.7978 274.474 24.7982C273.831 25.7737 273.462 26.624 273.367 27.3493C273.348 27.4244 273.339 27.4994 273.339 27.5744C273.339 27.6495 273.339 27.712 273.339 27.762C273.339 28.1372 273.396 28.3873 273.509 28.5124C273.642 28.6374 273.793 28.6999 273.963 28.6999C274.285 28.6999 274.654 28.5749 275.071 28.3248C275.487 28.0497 275.875 27.7495 276.235 27.4244C276.613 27.0992 276.878 26.8491 277.029 26.6741C277.616 25.9988 278.278 25.2735 279.017 24.4981C279.774 23.6978 280.445 22.9599 281.032 22.2847C281.146 22.2096 281.288 22.1721 281.458 22.1721C281.761 22.1721 281.997 22.2596 282.168 22.4347C282.243 22.5098 282.281 22.6598 282.281 22.8849C282.281 23.185 282.196 23.5602 282.026 24.0104C281.723 24.8608 281.467 25.6236 281.259 26.2989C281.051 26.9492 280.947 27.4869 280.947 27.9121C280.947 28.5374 281.212 28.85 281.742 28.85C282.158 28.85 282.83 28.6374 283.757 28.2122C284.723 27.737 285.697 27.0742 286.681 26.2239C287.685 25.3735 288.584 24.5106 289.378 23.6352C289.473 23.5102 289.568 23.4101 289.662 23.3351C289.757 23.2601 289.842 23.1725 289.918 23.0725C290.012 22.9975 290.098 22.9099 290.173 22.8099C290.268 22.7098 290.372 22.6098 290.486 22.5098C290.599 22.4597 290.675 22.4347 290.713 22.4347C290.845 22.4347 290.911 22.5223 290.911 22.6973C290.911 22.8474 290.864 22.985 290.769 23.11C290.656 23.3101 290.381 23.6728 289.946 24.198C289.511 24.7232 288.971 25.311 288.328 25.9612C287.703 26.6115 287.013 27.2368 286.256 27.8371C285.518 28.4373 284.77 28.9125 284.013 29.2627C283.729 29.3877 283.398 29.5003 283.019 29.6003C282.66 29.7254 282.3 29.7879 281.941 29.7879Z" fill="#002434"/>
<path d="M261.109 30.8759C260.882 30.8259 260.664 30.7133 260.456 30.5382C260.267 30.3882 260.172 30.1506 260.172 29.8254C260.172 29.2752 260.399 28.6999 260.854 28.0997C261.308 27.4744 261.876 26.8742 262.557 26.2989C263.238 25.7237 263.91 25.2484 264.573 24.8733C264.156 24.298 263.825 23.7478 263.579 23.2226C263.333 22.6723 263.21 22.1221 263.21 21.5719C263.21 20.8215 263.475 20.1087 264.005 19.4334C264.535 18.7331 265.377 18.0453 266.531 17.37C267.08 17.0449 267.572 16.8198 268.008 16.6947C268.462 16.5697 268.859 16.5072 269.2 16.5072C269.635 16.5072 269.995 16.5822 270.279 16.7323C270.563 16.8823 270.771 17.0574 270.903 17.2575C271.206 17.7327 271.357 18.2079 271.357 18.6831C271.357 19.2834 271.159 19.7961 270.761 20.2213C270.364 20.6465 269.995 20.9966 269.654 21.2717C269.597 21.2967 269.541 21.3342 269.484 21.3843C269.427 21.4343 269.38 21.4843 269.342 21.5343C269.228 21.6344 269.162 21.6969 269.143 21.7219C268.973 21.922 268.802 21.972 268.632 21.872C268.538 21.7969 268.49 21.6969 268.49 21.5719C268.49 21.4468 268.538 21.3468 268.632 21.2717C268.84 21.1467 269.077 20.9091 269.342 20.5589C269.626 20.1838 269.872 19.7961 270.08 19.3959C270.307 18.9707 270.421 18.6081 270.421 18.3079C270.421 18.1579 270.392 18.0328 270.335 17.9328C270.222 17.7827 269.995 17.7077 269.654 17.7077C269.238 17.7077 268.746 17.8327 268.178 18.0828C267.629 18.3329 267.09 18.6706 266.56 19.0958C266.049 19.496 265.623 19.9461 265.282 20.4464C264.942 20.9216 264.771 21.3968 264.771 21.872C264.771 22.2972 264.875 22.7098 265.084 23.11C265.311 23.4852 265.557 23.8478 265.822 24.198C266.352 23.8979 266.976 23.6478 267.695 23.4477C268.433 23.2226 269.19 23.0475 269.966 22.9224C270.761 22.7974 271.528 22.7098 272.266 22.6598C273.004 22.6098 273.638 22.5848 274.168 22.5848C274.49 22.5848 274.764 22.5848 274.991 22.5848C275.218 22.5848 275.398 22.6098 275.531 22.6598C275.701 22.7098 275.786 22.8099 275.786 22.96C275.786 23.06 275.748 23.1475 275.672 23.2226C275.616 23.2976 275.549 23.3351 275.474 23.3351C275.341 23.3351 275.199 23.3226 275.048 23.2976C274.915 23.2726 274.755 23.2601 274.565 23.2601C273.979 23.2601 273.278 23.3226 272.465 23.4477C271.651 23.5477 270.828 23.6853 269.995 23.8603C269.181 24.0104 268.443 24.1855 267.78 24.3856C267.118 24.5857 266.645 24.7857 266.361 24.9858C266.683 25.5611 266.844 26.1738 266.844 26.8241C266.844 27.9746 266.418 28.875 265.566 29.5253C264.998 30.0005 264.355 30.3507 263.636 30.5758C262.936 30.8259 262.311 30.9509 261.762 30.9509C261.63 30.9509 261.507 30.9384 261.393 30.9134C261.298 30.9134 261.204 30.9009 261.109 30.8759ZM261.734 29.7879C261.942 29.7879 262.32 29.6754 262.869 29.4503C263.437 29.2502 263.957 28.95 264.431 28.5499C265.074 28.0246 265.396 27.4244 265.396 26.7491C265.396 26.3239 265.244 25.8737 264.942 25.3985C264.582 25.5736 264.137 25.9112 263.607 26.4115C263.096 26.8867 262.642 27.3869 262.245 27.9121C261.809 28.4873 261.535 28.9626 261.421 29.3377C261.421 29.3627 261.412 29.3877 261.393 29.4128C261.393 29.4378 261.393 29.4753 261.393 29.5253C261.393 29.6754 261.507 29.7629 261.734 29.7879Z" fill="#002434"/>
<path d="M258.34 16.9949C258.113 16.9949 257.952 16.9198 257.857 16.7698C257.763 16.5947 257.715 16.3821 257.715 16.132C257.715 15.8569 257.753 15.6193 257.829 15.4192C257.904 15.2191 258.103 15.044 258.425 14.894C258.766 14.7439 259.125 14.6313 259.504 14.5563C259.901 14.4813 260.204 14.4438 260.412 14.4438C260.639 14.4438 260.753 14.5063 260.753 14.6313C260.753 14.7314 260.705 14.8189 260.611 14.894C260.573 14.919 260.516 14.9565 260.441 15.0065C260.384 15.0565 260.308 15.1066 260.213 15.1566C260.081 15.2316 259.93 15.3316 259.759 15.4567C259.608 15.5567 259.513 15.6818 259.475 15.8319C259.362 16.157 259.201 16.4321 258.993 16.6572C258.785 16.8823 258.567 16.9949 258.34 16.9949ZM253.627 29.6754C253.097 29.6754 252.615 29.5378 252.179 29.2627C251.763 28.9876 251.555 28.4623 251.555 27.687C251.555 26.9367 251.687 26.2114 251.952 25.5111C252.217 24.8108 252.549 24.148 252.946 23.5227C253.362 22.8974 253.76 22.3472 254.138 21.872C254.46 21.4968 254.716 21.1967 254.905 20.9716C254.886 20.9466 254.876 20.8966 254.876 20.8215C254.876 20.6214 254.943 20.4214 255.075 20.2213C255.283 19.8211 255.624 19.4834 256.097 19.2083C256.211 19.1583 256.324 19.1333 256.438 19.1333C256.684 19.1333 256.93 19.2083 257.176 19.3584C257.422 19.4834 257.545 19.696 257.545 19.9962C257.545 20.1712 257.498 20.3338 257.403 20.4839C257.308 20.6339 257.223 20.7465 257.147 20.8215C256.996 20.9716 256.759 21.2342 256.438 21.6094C256.135 21.9595 255.804 22.3722 255.444 22.8474C255.085 23.2976 254.734 23.7478 254.394 24.198C254.072 24.6232 253.826 24.9858 253.656 25.286C252.993 26.4114 252.662 27.2618 252.662 27.8371C252.662 28.0872 252.738 28.2998 252.889 28.4748C253.06 28.6249 253.353 28.6999 253.769 28.6999C254.432 28.6999 255.085 28.5624 255.728 28.2873C256.39 27.9871 256.996 27.6495 257.545 27.2743C257.999 26.9742 258.425 26.6365 258.822 26.2614C259.239 25.8862 259.646 25.4986 260.043 25.0984C260.441 24.6732 260.838 24.2355 261.235 23.7853C261.652 23.3351 262.068 22.8849 262.485 22.4347C262.541 22.4097 262.608 22.3972 262.683 22.3972C262.835 22.3972 262.91 22.4847 262.91 22.6598C262.91 22.8099 262.863 22.9474 262.768 23.0725C262.655 23.2726 262.418 23.5977 262.059 24.0479C261.699 24.4981 261.254 25.0108 260.724 25.5861C260.213 26.1613 259.636 26.7241 258.993 27.2743C258.349 27.8246 257.687 28.2998 257.006 28.6999C256.646 28.9 256.144 29.1126 255.501 29.3377C254.857 29.5628 254.233 29.6754 253.627 29.6754Z" fill="#002434"/>
<path d="M244.053 30.0505C243.694 30.0505 243.344 30.013 243.003 29.938C242.681 29.8629 242.388 29.7379 242.123 29.5628C241.517 29.1626 241.11 28.5874 240.902 27.8371C240.713 27.0867 240.618 26.3614 240.618 25.6611C240.618 25.336 240.628 25.0359 240.647 24.7607C240.685 24.4856 240.713 24.223 240.732 23.9729C240.675 23.9979 240.628 24.0104 240.59 24.0104C240.552 23.9854 240.514 23.9729 240.476 23.9729C240.306 23.9229 240.221 23.8228 240.221 23.6728C240.221 23.5477 240.268 23.4352 240.363 23.3351C240.42 23.2851 240.505 23.1976 240.618 23.0725C240.751 22.9224 240.855 22.7974 240.931 22.6973C241.082 22.022 241.309 21.1592 241.612 20.1087C241.915 19.0583 242.341 17.9203 242.889 16.6947C243.306 15.7693 243.826 14.6814 244.451 13.4308C245.075 12.1803 245.785 10.9047 246.58 9.60417C247.375 8.27859 248.217 7.05306 249.107 5.92757C249.996 4.77708 250.904 3.85167 251.832 3.15137C252.778 2.45107 253.715 2.10091 254.642 2.10091C255.134 2.10091 255.494 2.2885 255.721 2.66366C255.948 3.01381 256.062 3.48902 256.062 4.08928C256.062 4.93964 255.825 6.01511 255.352 7.31568C254.86 8.66626 254.245 9.94181 253.507 11.1423C252.769 12.3429 252.012 13.4308 251.236 14.4062C250.46 15.3817 249.769 16.2195 249.163 16.9198C248.406 17.7702 247.668 18.5455 246.949 19.2458C246.249 19.9211 245.596 20.5089 244.99 21.0091C244.404 21.5093 243.864 21.947 243.372 22.3222C242.899 22.6723 242.53 22.96 242.265 23.1851C242.095 23.8603 242.009 24.6357 242.009 25.5111C242.009 26.4365 242.161 27.2493 242.464 27.9496C242.785 28.6499 243.353 29.0001 244.167 29.0001C244.754 29.0001 245.369 28.85 246.012 28.5499C246.675 28.2247 247.271 27.8871 247.801 27.5369C248.596 27.0117 249.362 26.4365 250.1 25.8112C250.838 25.1609 251.491 24.5606 252.059 24.0104C252.627 23.4352 253.034 22.9975 253.28 22.6973C253.355 22.5973 253.422 22.5473 253.478 22.5473C253.535 22.5223 253.573 22.5098 253.592 22.5098C253.687 22.5598 253.734 22.6598 253.734 22.8099C253.734 23.035 253.639 23.2726 253.45 23.5227C252.674 24.5481 251.822 25.5361 250.895 26.4865C249.968 27.4369 248.984 28.2247 247.943 28.85C247.318 29.2252 246.665 29.5128 245.984 29.7129C245.321 29.938 244.678 30.0505 244.053 30.0505ZM242.662 21.6469C243.022 21.3718 243.533 20.9466 244.195 20.3713C244.877 19.7961 245.615 19.1333 246.41 18.383C247.205 17.6076 247.952 16.8073 248.652 15.9819C249.012 15.5567 249.447 15.019 249.958 14.3687C250.488 13.6934 251.028 12.9556 251.576 12.1553C252.144 11.3299 252.665 10.4795 253.138 9.60417C253.63 8.70378 254.027 7.81589 254.33 6.94051C254.633 6.04012 254.784 5.20226 254.784 4.42692C254.784 4.07677 254.727 3.83917 254.614 3.71411C254.519 3.56405 254.387 3.48902 254.216 3.48902C253.876 3.48902 253.422 3.71411 252.854 4.16431C252.305 4.58949 251.709 5.15224 251.065 5.85254C250.422 6.55284 249.797 7.32818 249.192 8.17855C248.264 9.47911 247.365 10.9548 246.495 12.6055C245.643 14.2312 244.886 15.8444 244.224 17.4451C243.561 19.0207 243.041 20.4214 242.662 21.6469Z" fill="#002434"/>
<path d="M231.482 29.8629C231.046 29.8629 230.63 29.8004 230.233 29.6754C229.835 29.5503 229.476 29.3627 229.154 29.1126C228.321 28.4123 227.905 27.4869 227.905 26.3364C227.905 25.436 228.132 24.5231 228.586 23.5977C229.059 22.6473 229.665 21.7469 230.403 20.8966C231.141 20.0462 231.917 19.3459 232.731 18.7957C233.223 18.4455 233.715 18.1954 234.207 18.0453C234.699 17.8953 235.134 17.8202 235.513 17.8202C236.175 17.8202 236.611 17.9953 236.819 18.3455C237.046 18.6706 237.159 19.0583 237.159 19.5085C237.159 19.9837 237.046 20.4464 236.819 20.8966C236.592 21.3217 236.27 21.7469 235.854 22.1721C235.134 22.9474 234.15 23.6352 232.901 24.2355C231.671 24.8358 230.403 25.261 229.097 25.5111C228.908 26.0113 228.813 26.474 228.813 26.8992C228.851 27.5995 229.125 28.0997 229.636 28.3998C230.166 28.6749 230.753 28.8125 231.397 28.8125C231.624 28.8125 231.841 28.8 232.05 28.775C232.258 28.75 232.456 28.7124 232.646 28.6624C233.592 28.4123 234.557 27.9621 235.541 27.3118C236.544 26.6616 237.51 25.9112 238.437 25.0609C239.364 24.2105 240.197 23.3601 240.935 22.5098C241.049 22.4597 241.124 22.4347 241.162 22.4347C241.295 22.4347 241.361 22.5223 241.361 22.6973C241.361 22.8224 241.323 22.9475 241.247 23.0725C241.115 23.3726 240.84 23.7603 240.424 24.2355C240.027 24.7107 239.572 25.1984 239.061 25.6986C238.55 26.1738 238.049 26.6365 237.557 27.0867C237.084 27.5119 236.686 27.8371 236.365 28.0622C235.683 28.5624 234.907 28.9876 234.037 29.3377C233.166 29.6879 232.314 29.8629 231.482 29.8629ZM229.58 24.4606C230.185 24.2605 230.886 24.0104 231.68 23.7103C232.475 23.3851 233.232 23.01 233.952 22.5848C234.671 22.1346 235.21 21.6469 235.57 21.1217C235.721 20.9216 235.825 20.7215 235.882 20.5214C235.939 20.2963 235.967 20.1087 235.967 19.9587C235.967 19.8336 235.929 19.7211 235.854 19.621C235.797 19.521 235.608 19.4709 235.286 19.4709C234.832 19.4709 234.245 19.7211 233.526 20.2213C232.807 20.6965 232.087 21.3217 231.368 22.0971C230.668 22.8474 230.072 23.6352 229.58 24.4606Z" fill="#002434"/>
<path d="M222.684 36.991C221.927 36.991 221.293 36.7284 220.782 36.2032C220.29 35.678 219.921 34.9651 219.675 34.0648C219.448 33.1894 219.334 32.239 219.334 31.2135C219.334 27.9121 219.817 24.248 220.782 20.2213C221.766 16.1945 223.195 12.1178 225.068 7.99096C224.576 8.29109 223.971 8.82883 223.252 9.60416C222.532 10.3545 221.756 11.2424 220.924 12.2678C220.11 13.2933 219.287 14.3687 218.454 15.4942C217.621 16.5947 216.836 17.6827 216.098 18.7581C215.378 19.8086 214.754 20.7465 214.224 21.5718C213.713 22.3722 213.363 22.985 213.174 23.4101C213.022 23.6853 212.824 23.8228 212.577 23.8228C212.275 23.8228 211.991 23.6352 211.726 23.2601C211.461 22.8599 211.328 22.4597 211.328 22.0596C211.328 21.9095 211.423 21.6344 211.612 21.2342C211.688 21.0341 211.773 20.8215 211.868 20.5964C211.981 20.3463 212.104 20.0837 212.237 19.8086C212.502 19.2333 212.786 18.5956 213.088 17.8953C213.391 17.195 213.675 16.4821 213.94 15.7568C214.054 15.4067 214.215 14.944 214.423 14.3687C214.631 13.7685 214.839 13.1307 215.047 12.4554C215.274 11.7551 215.454 11.0673 215.587 10.392C215.738 9.71671 215.814 9.14146 215.814 8.66625C215.814 7.91593 215.615 7.54077 215.218 7.54077C214.934 7.54077 214.461 7.76587 213.798 8.21606C212.928 8.86634 212 9.79174 211.016 10.9923C210.051 12.1678 209.086 13.5309 208.121 15.0815C207.155 16.6072 206.237 18.2329 205.367 19.9586C204.515 21.6844 203.758 23.4101 203.096 25.1359C202.433 26.8366 201.922 28.4498 201.563 29.9755C201.449 30.1756 201.288 30.3757 201.08 30.5757C200.872 30.7758 200.664 30.8759 200.456 30.8759C200.266 30.8759 200.105 30.7758 199.973 30.5757C199.841 30.3757 199.774 30.0755 199.774 29.6754C199.774 29.4503 199.822 29.1751 199.916 28.85C199.954 28.6999 200.001 28.5374 200.058 28.3623C200.115 28.1872 200.162 28.0121 200.2 27.8371C200.295 27.5369 200.541 26.8616 200.938 25.8112C201.355 24.7607 201.856 23.5102 202.443 22.0596C203.03 20.5839 203.673 18.9582 204.373 17.1824C205.073 15.4067 205.764 13.6184 206.446 11.8176C206.919 10.5671 207.316 9.30403 207.638 8.02848C207.96 6.72792 208.121 5.56491 208.121 4.53947C208.121 3.51402 207.884 2.67616 207.411 2.02588C206.938 1.3756 206.086 1.05046 204.856 1.05046C203.096 1.05046 201.26 1.30056 199.348 1.80078C197.456 2.27599 195.554 2.93877 193.642 3.78914C191.75 4.63951 189.905 5.62744 188.107 6.75293C186.328 7.87841 184.672 9.10395 183.139 10.4295C181.606 11.7301 180.262 13.0682 179.107 14.4438C177.953 15.8194 177.054 17.1824 176.411 18.533C175.767 19.8836 175.445 21.1717 175.445 22.3972C175.445 22.5473 175.445 22.6973 175.445 22.8474C175.464 22.9725 175.483 23.0975 175.502 23.2226C175.597 23.9229 175.824 24.4106 176.183 24.6857C176.562 24.9358 176.988 25.0609 177.461 25.0609C177.858 25.0609 178.275 25.0108 178.71 24.9108C179.164 24.7857 179.571 24.6607 179.931 24.5356C179.969 24.5356 179.997 24.5356 180.016 24.5356C180.054 24.5106 180.082 24.4981 180.101 24.4981C180.215 24.4981 180.319 24.5231 180.413 24.5731C180.508 24.6232 180.593 24.6732 180.669 24.7232C180.782 24.8233 180.839 24.9358 180.839 25.0609C180.839 25.2609 180.735 25.3985 180.527 25.4735C179.618 25.8987 178.644 26.1113 177.603 26.1113C176.941 26.1113 176.306 25.9863 175.701 25.7361C175.114 25.486 174.632 25.0609 174.253 24.4606C173.875 23.8603 173.685 23.06 173.685 22.0596C173.685 20.759 174.035 19.3959 174.736 17.9703C175.436 16.5447 176.411 15.1191 177.66 13.6934C178.909 12.2678 180.357 10.8922 182.003 9.56665C183.65 8.21606 185.419 6.96552 187.312 5.81502C189.223 4.63951 191.192 3.62657 193.217 2.7762C195.242 1.90082 197.257 1.22553 199.263 0.750327C201.269 0.250109 203.181 0 204.998 0C206.758 0 208.007 0.412679 208.745 1.23804C209.483 2.03838 209.852 3.12635 209.852 4.50195C209.852 5.57742 209.672 6.76543 209.313 8.066C208.972 9.34155 208.527 10.6671 207.979 12.0427C207.695 12.768 207.42 13.4433 207.155 14.0686C206.909 14.6939 206.673 15.2816 206.446 15.8319C207.222 14.5813 208.026 13.3683 208.859 12.1928C209.71 11.0173 210.562 9.96682 211.414 9.04142C212.265 8.11602 213.088 7.3782 213.883 6.82796C214.697 6.27772 215.454 6.0026 216.154 6.0026C216.741 6.0026 217.158 6.21519 217.404 6.64038C217.65 7.04055 217.773 7.56578 217.773 8.21606C217.773 8.94137 217.65 9.77924 217.404 10.7297C217.158 11.6551 216.864 12.5805 216.523 13.5059C216.202 14.4062 215.899 15.1941 215.615 15.8694C215.35 16.5197 215.095 17.1449 214.849 17.7452C214.603 18.3204 214.357 18.8957 214.11 19.4709C214.716 18.6706 215.464 17.6702 216.353 16.4696C217.262 15.2691 218.217 14.0186 219.22 12.718C220.053 11.6676 220.895 10.6296 221.747 9.60416C222.599 8.57872 223.441 7.64081 224.274 6.79044C225.106 5.91506 225.882 5.21476 226.601 4.68953C226.81 4.53947 227.037 4.58949 227.283 4.8396C227.548 5.06469 227.727 5.3148 227.822 5.58992C227.86 5.73999 227.879 5.89005 227.879 6.04012C227.879 6.34025 227.822 6.7029 227.709 7.12809C227.595 7.52826 227.406 7.91593 227.141 8.29109C226.213 9.66669 225.371 11.3049 224.614 13.2057C223.857 15.0815 223.204 17.0574 222.655 19.1333C222.125 21.1842 221.719 23.1975 221.435 25.1734C221.151 27.1493 221.009 28.925 221.009 30.5007C221.009 32.1014 221.16 33.3645 221.463 34.2899C221.785 35.2403 222.249 35.7155 222.854 35.7155C223.27 35.7155 223.744 35.5779 224.274 35.3028C224.803 35.0277 225.333 34.6775 225.863 34.2523C226.393 33.8522 226.847 33.452 227.226 33.0518C227.264 33.0018 227.311 32.9768 227.368 32.9768C227.444 32.9768 227.491 33.0143 227.51 33.0893C227.548 33.1644 227.576 33.2269 227.595 33.2769V33.3895C227.595 33.5145 227.567 33.6396 227.51 33.7646C227.434 33.8897 227.254 34.1148 226.97 34.4399C226.687 34.7901 226.327 35.1527 225.892 35.5279C225.456 35.9281 224.964 36.2657 224.415 36.5408C223.867 36.841 223.289 36.991 222.684 36.991Z" fill="#002434"/>
<path d="M126.344 30.0505C125.643 30.0505 125.132 29.8004 124.811 29.3002C124.489 28.8 124.328 28.2372 124.328 27.612C124.328 27.4119 124.338 27.2243 124.357 27.0492C124.394 26.8491 124.432 26.649 124.47 26.449C124.603 25.9487 124.839 25.336 125.18 24.6107C125.539 23.8854 125.937 23.1976 126.372 22.5473C126.807 21.872 127.224 21.3843 127.621 21.0841C127.432 20.809 127.337 20.4714 127.337 20.0712C127.337 19.1708 127.867 18.508 128.927 18.0828C129.192 17.9578 129.476 17.8828 129.779 17.8577C130.1 17.8077 130.432 17.7827 130.772 17.7827C131.208 17.7827 131.633 17.8202 132.05 17.8953C132.655 18.0203 133.185 18.3705 133.64 18.9457C134.094 19.4959 134.359 20.1712 134.434 20.9716C134.472 21.2467 134.472 21.5218 134.434 21.7969C134.737 21.822 135.031 21.8345 135.314 21.8345C135.617 21.8095 135.892 21.7969 136.138 21.7969C136.705 21.7969 137.283 21.7469 137.869 21.6469C138.475 21.5218 139.024 21.3843 139.516 21.2342C140.027 21.0591 140.405 20.8841 140.652 20.709C140.803 20.6339 140.916 20.5964 140.992 20.5964C141.144 20.5964 141.238 20.6715 141.276 20.8215C141.276 21.0716 141.096 21.3092 140.737 21.5343C140.32 21.7844 139.686 22.0345 138.835 22.2847C137.983 22.5348 137.084 22.6848 136.138 22.7349C135.911 22.7599 135.636 22.7849 135.314 22.8099C135.012 22.8099 134.671 22.8099 134.292 22.8099C134.084 23.8103 133.677 24.7482 133.072 25.6236C132.485 26.499 131.794 27.2743 130.999 27.9496C130.205 28.5999 129.391 29.1126 128.558 29.4878C127.744 29.8629 127.006 30.0505 126.344 30.0505ZM133.412 21.7219C133.507 21.3468 133.554 21.0216 133.554 20.7465C133.554 20.2963 133.412 19.9086 133.129 19.5835C132.864 19.2583 132.353 19.0958 131.596 19.0958C130.82 19.0958 130.167 19.2458 129.637 19.546C129.126 19.8211 128.87 20.0712 128.87 20.2963C128.87 20.3463 128.908 20.4214 128.984 20.5214C129.06 20.6214 129.211 20.7215 129.438 20.8215C130.044 21.0716 130.687 21.2717 131.368 21.4218C132.05 21.5718 132.731 21.6719 133.412 21.7219ZM126.883 28.9626C127.243 28.8625 127.687 28.6374 128.217 28.2873C128.766 27.9371 129.334 27.4994 129.921 26.9742C130.526 26.424 131.085 25.8237 131.596 25.1734C132.125 24.5481 132.608 23.7478 133.043 22.7724C132.343 22.7724 131.652 22.7599 130.971 22.7349C130.309 22.7098 129.712 22.5348 129.183 22.2096C128.955 22.2346 128.634 22.4722 128.217 22.9224C127.801 23.3476 127.385 23.8854 126.968 24.5356C126.552 25.1859 126.192 25.8487 125.889 26.524C125.606 27.1743 125.464 27.737 125.464 28.2122C125.464 28.4373 125.52 28.6374 125.634 28.8125C125.766 28.9626 125.994 29.0376 126.315 29.0376C126.391 29.0376 126.476 29.0376 126.571 29.0376C126.665 29.0126 126.77 28.9876 126.883 28.9626Z" fill="#002434"/>
<path d="M122.524 16.9949C122.297 16.9949 122.136 16.9198 122.041 16.7698C121.947 16.5947 121.9 16.3821 121.9 16.132C121.9 15.8569 121.937 15.6193 122.013 15.4192C122.089 15.2191 122.288 15.044 122.609 14.894C122.95 14.7439 123.31 14.6313 123.688 14.5563C124.085 14.4813 124.388 14.4438 124.596 14.4438C124.824 14.4438 124.937 14.5063 124.937 14.6313C124.937 14.7314 124.89 14.8189 124.795 14.894C124.757 14.919 124.701 14.9565 124.625 15.0065C124.568 15.0565 124.492 15.1066 124.398 15.1566C124.265 15.2316 124.114 15.3316 123.944 15.4567C123.792 15.5567 123.697 15.6818 123.66 15.8319C123.546 16.157 123.385 16.4321 123.177 16.6572C122.969 16.8823 122.751 16.9949 122.524 16.9949ZM117.812 29.6754C117.282 29.6754 116.799 29.5378 116.364 29.2627C115.947 28.9876 115.739 28.4623 115.739 27.687C115.739 26.9367 115.872 26.2114 116.137 25.5111C116.402 24.8108 116.733 24.148 117.13 23.5227C117.547 22.8974 117.944 22.3472 118.323 21.872C118.644 21.4968 118.9 21.1967 119.089 20.9716C119.07 20.9466 119.061 20.8966 119.061 20.8215C119.061 20.6214 119.127 20.4214 119.259 20.2213C119.468 19.8211 119.808 19.4834 120.281 19.2083C120.395 19.1583 120.509 19.1333 120.622 19.1333C120.868 19.1333 121.114 19.2083 121.36 19.3584C121.606 19.4834 121.729 19.696 121.729 19.9962C121.729 20.1712 121.682 20.3338 121.587 20.4839C121.493 20.6339 121.407 20.7465 121.332 20.8215C121.18 20.9716 120.944 21.2342 120.622 21.6094C120.319 21.9595 119.988 22.3722 119.628 22.8474C119.269 23.2976 118.919 23.7478 118.578 24.198C118.256 24.6232 118.01 24.9858 117.84 25.286C117.178 26.4114 116.846 27.2618 116.846 27.8371C116.846 28.0872 116.922 28.2998 117.074 28.4748C117.244 28.6249 117.537 28.6999 117.954 28.6999C118.616 28.6999 119.269 28.5624 119.912 28.2873C120.575 27.9871 121.18 27.6495 121.729 27.2743C122.183 26.9742 122.609 26.6365 123.007 26.2614C123.423 25.8862 123.83 25.4986 124.227 25.0984C124.625 24.6732 125.022 24.2355 125.42 23.7853C125.836 23.3351 126.252 22.8849 126.669 22.4347C126.726 22.4097 126.792 22.3972 126.868 22.3972C127.019 22.3972 127.095 22.4847 127.095 22.6598C127.095 22.8099 127.047 22.9474 126.953 23.0725C126.839 23.2726 126.603 23.5977 126.243 24.0479C125.883 24.4981 125.439 25.0108 124.909 25.5861C124.398 26.1613 123.821 26.7241 123.177 27.2743C122.534 27.8246 121.871 28.2998 121.19 28.6999C120.83 28.9 120.329 29.1126 119.685 29.3377C119.042 29.5628 118.417 29.6754 117.812 29.6754Z" fill="#002434"/>
<path d="M108.391 29.8629C107.956 29.8629 107.539 29.8004 107.142 29.6754C106.744 29.5503 106.385 29.3627 106.063 29.1126C105.23 28.4123 104.814 27.4869 104.814 26.3364C104.814 25.436 105.041 24.5231 105.495 23.5977C105.968 22.6473 106.574 21.7469 107.312 20.8966C108.05 20.0462 108.826 19.3459 109.64 18.7957C110.151 18.4455 110.653 18.1954 111.145 18.0453C111.637 17.8953 112.081 17.8202 112.479 17.8202C112.914 17.8202 113.302 17.9078 113.643 18.0828C113.983 18.2579 114.173 18.5205 114.211 18.8707C114.286 19.596 114.135 20.2713 113.756 20.8966C113.378 21.4968 112.924 22.0346 112.394 22.5098C111.864 22.985 111.4 23.3726 111.003 23.6728C110.946 23.6978 110.889 23.7353 110.832 23.7853C110.794 23.8103 110.757 23.8228 110.719 23.8228C110.586 23.8228 110.511 23.7728 110.492 23.6728C110.473 23.5477 110.473 23.4352 110.492 23.3351C110.567 23.01 110.804 22.7098 111.201 22.4347C111.447 22.2597 111.703 22.0346 111.968 21.7594C112.233 21.4593 112.46 21.1467 112.649 20.8215C112.838 20.4714 112.933 20.1838 112.933 19.9587C112.933 19.8336 112.886 19.7211 112.791 19.621C112.696 19.521 112.488 19.4709 112.167 19.4709C111.788 19.4709 111.324 19.6335 110.776 19.9587C110.227 20.2838 109.659 20.7215 109.072 21.2717C108.486 21.797 107.937 22.3847 107.426 23.035C106.934 23.6853 106.527 24.3356 106.205 24.9858C105.883 25.6361 105.722 26.2364 105.722 26.7866C105.722 27.5119 105.987 28.0372 106.517 28.3623C107.047 28.6624 107.643 28.8125 108.306 28.8125C108.533 28.8125 108.75 28.8 108.959 28.775C109.167 28.75 109.366 28.7124 109.555 28.6624C110.501 28.4123 111.466 27.9621 112.45 27.3118C113.454 26.6616 114.419 25.9112 115.346 25.0609C116.273 24.2105 117.106 23.3601 117.844 22.5098C117.958 22.4597 118.034 22.4347 118.071 22.4347C118.204 22.4347 118.27 22.5223 118.27 22.6973C118.27 22.8224 118.232 22.9475 118.157 23.0725C118.024 23.3726 117.75 23.7603 117.333 24.2355C116.936 24.7107 116.482 25.1984 115.971 25.6986C115.46 26.1738 114.958 26.6365 114.466 27.0867C113.993 27.5119 113.595 27.8371 113.274 28.0622C112.592 28.5624 111.816 28.9876 110.946 29.3377C110.075 29.6879 109.224 29.8629 108.391 29.8629Z" fill="#002434"/>
<path d="M101.704 16.9949C101.477 16.9949 101.316 16.9198 101.222 16.7698C101.127 16.5947 101.08 16.3821 101.08 16.132C101.08 15.8569 101.118 15.6193 101.193 15.4192C101.269 15.2191 101.468 15.044 101.789 14.894C102.13 14.7439 102.49 14.6313 102.868 14.5563C103.266 14.4813 103.568 14.4438 103.777 14.4438C104.004 14.4438 104.117 14.5063 104.117 14.6313C104.117 14.7314 104.07 14.8189 103.975 14.894C103.937 14.919 103.881 14.9565 103.805 15.0065C103.748 15.0565 103.673 15.1066 103.578 15.1566C103.445 15.2316 103.294 15.3316 103.124 15.4567C102.972 15.5567 102.878 15.6818 102.84 15.8319C102.726 16.157 102.565 16.4321 102.357 16.6572C102.149 16.8823 101.931 16.9949 101.704 16.9949ZM96.9918 29.6754C96.4619 29.6754 95.9793 29.5378 95.544 29.2627C95.1276 28.9876 94.9194 28.4623 94.9194 27.687C94.9194 26.9367 95.0519 26.2114 95.3169 25.5111C95.5818 24.8108 95.913 24.148 96.3105 23.5227C96.7268 22.8974 97.1243 22.3472 97.5028 21.872C97.8245 21.4968 98.08 21.1967 98.2693 20.9716C98.2503 20.9466 98.2409 20.8966 98.2409 20.8215C98.2409 20.6214 98.3071 20.4214 98.4396 20.2213C98.6478 19.8211 98.9884 19.4834 99.4616 19.2083C99.5751 19.1583 99.6887 19.1333 99.8023 19.1333C100.048 19.1333 100.294 19.2083 100.54 19.3584C100.786 19.4834 100.909 19.696 100.909 19.9962C100.909 20.1712 100.862 20.3338 100.767 20.4839C100.673 20.6339 100.588 20.7465 100.512 20.8215C100.361 20.9716 100.124 21.2342 99.8023 21.6094C99.4994 21.9595 99.1682 22.3722 98.8087 22.8474C98.4491 23.2976 98.0989 23.7478 97.7583 24.198C97.4365 24.6232 97.1905 24.9858 97.0202 25.286C96.3578 26.4114 96.0266 27.2618 96.0266 27.8371C96.0266 28.0872 96.1023 28.2998 96.2537 28.4748C96.424 28.6249 96.7174 28.6999 97.1337 28.6999C97.7961 28.6999 98.4491 28.5624 99.0925 28.2873C99.7549 27.9871 100.361 27.6495 100.909 27.2743C101.364 26.9742 101.789 26.6365 102.187 26.2614C102.603 25.8862 103.01 25.4986 103.408 25.0984C103.805 24.6732 104.202 24.2355 104.6 23.7853C105.016 23.3351 105.433 22.8849 105.849 22.4347C105.906 22.4097 105.972 22.3972 106.048 22.3972C106.199 22.3972 106.275 22.4847 106.275 22.6598C106.275 22.8099 106.228 22.9474 106.133 23.0725C106.019 23.2726 105.783 23.5977 105.423 24.0479C105.064 24.4981 104.619 25.0108 104.089 25.5861C103.578 26.1613 103.001 26.7241 102.357 27.2743C101.714 27.8246 101.051 28.2998 100.37 28.6999C100.01 28.9 99.5089 29.1126 98.8654 29.3377C98.222 29.5628 97.5974 29.6754 96.9918 29.6754Z" fill="#002434"/>
<path d="M89.0898 35.9406C88.2192 35.9406 87.5852 35.653 87.1877 35.0777C86.7903 34.5025 86.5916 33.7646 86.5916 32.8642C86.5916 31.8888 86.7714 30.7883 87.131 29.5628C87.5095 28.3373 88.0015 27.0992 88.6072 25.8487C89.2317 24.5732 89.9036 23.3976 90.6227 22.3222C90.5281 22.3472 90.4335 22.3597 90.3388 22.3597C90.2442 22.3597 90.1496 22.3597 90.055 22.3597C89.4115 22.3597 88.8721 22.1596 88.4368 21.7594C88.2476 22.1346 87.9826 22.5473 87.6419 22.9975C87.3013 23.4477 86.9701 23.8478 86.6484 24.198C85.8535 25.0734 85.0113 25.9112 84.1218 26.7116C83.2323 27.5119 82.3522 28.1747 81.4816 28.6999C80.6111 29.2252 79.7973 29.5253 79.0402 29.6003C78.9835 29.6003 78.9078 29.5878 78.8131 29.5628C78.6996 29.5378 78.6144 29.4878 78.5576 29.4128C78.4819 29.3377 78.463 29.2627 78.5009 29.1877C78.5387 29.0876 78.5766 29.0251 78.6144 29.0001C78.6712 28.95 78.7374 28.9125 78.8131 28.8875C78.8888 28.8375 78.9929 28.8 79.1254 28.775C79.7689 28.5999 80.4786 28.2497 81.2545 27.7245C82.0305 27.1743 82.8348 26.524 83.6676 25.7737C84.5192 24.9983 85.333 24.1855 86.109 23.3351C86.4307 23.01 86.7619 22.6473 87.1026 22.2471C87.4432 21.822 87.746 21.4343 88.011 21.0841C87.8217 20.684 87.7271 20.2588 87.7271 19.8086C87.7271 19.2083 87.8501 18.6081 88.0962 18.0078C88.3422 17.4075 88.6545 16.8573 89.033 16.3571C89.4115 15.8319 89.8184 15.4192 90.2537 15.1191C90.689 14.7939 91.0959 14.6313 91.4744 14.6313C91.6826 14.6313 91.8245 14.6939 91.9002 14.8189C91.9948 14.944 92.0422 15.0815 92.0422 15.2316C92.0422 15.5567 91.957 15.8069 91.7867 15.9819C91.6542 16.132 91.4365 16.4071 91.1337 16.8073C90.8498 17.2075 90.5376 17.6577 90.1969 18.1579C89.8562 18.6331 89.544 19.1083 89.2601 19.5835C88.9951 20.0337 88.8153 20.4088 88.7207 20.709C88.7775 20.834 88.8627 20.9466 88.9762 21.0466C89.1087 21.1467 89.3263 21.1967 89.6291 21.1967C90.0834 21.1967 90.5281 21.0716 90.9634 20.8215C91.3987 20.5714 91.8056 20.2713 92.1841 19.9211C92.2977 19.8461 92.4207 19.8086 92.5531 19.8086C92.7613 19.8086 92.9601 19.8711 93.1493 19.9962C93.3575 20.0962 93.4994 20.2088 93.5751 20.3338C93.5941 20.3588 93.6035 20.4088 93.6035 20.4839C93.6035 20.734 93.4994 21.0341 93.2912 21.3843C93.1777 21.5593 93.0452 21.7469 92.8938 21.947C92.7613 22.1471 92.6289 22.3472 92.4964 22.5473C91.9665 23.3226 91.4176 24.198 90.8498 25.1734C90.301 26.1238 89.7995 27.0992 89.3453 28.0997C88.891 29.0751 88.522 30.0005 88.2381 30.8759C87.9542 31.7763 87.8123 32.5516 87.8123 33.2019C87.8123 33.6771 87.9069 34.0523 88.0962 34.3274C88.3043 34.6275 88.6545 34.7776 89.1465 34.7776C89.2412 34.7776 89.3453 34.7651 89.4588 34.7401C89.5913 34.7401 89.7238 34.7276 89.8562 34.7025C90.3294 34.6025 90.8688 34.3774 91.4744 34.0272C92.08 33.6771 92.6856 33.2644 93.2912 32.7892C93.8969 32.339 94.4173 31.9263 94.8526 31.5512C94.8905 31.5012 94.9567 31.4761 95.0513 31.4761C95.1838 31.4761 95.2595 31.5512 95.2784 31.7012V31.7763C95.2784 31.9013 95.2217 32.0389 95.1081 32.189C95.0703 32.239 95.004 32.314 94.9094 32.4141C94.8148 32.5391 94.6917 32.6892 94.5403 32.8642C93.9347 33.5645 93.2629 34.1773 92.5248 34.7025C91.7867 35.2528 91.0107 35.6154 90.1969 35.7905C90.0077 35.8155 89.8184 35.8405 89.6291 35.8655C89.4399 35.9156 89.2601 35.9406 89.0898 35.9406Z" fill="#002434"/>
<path d="M78.4245 29.7879C77.5161 29.7879 76.8916 29.5253 76.5509 29.0001C76.2102 28.4748 76.0399 27.8246 76.0399 27.0492C76.0399 26.6741 76.0778 26.2864 76.1535 25.8862C76.2292 25.461 76.3143 25.0609 76.409 24.6857C76.1061 25.1109 75.7371 25.5986 75.3018 26.1488C74.8854 26.6991 74.4218 27.2368 73.9108 27.762C73.4187 28.2873 72.9266 28.725 72.4346 29.0751C71.9425 29.4002 71.4694 29.5628 71.0151 29.5628C70.4474 29.5628 69.9837 29.2377 69.6241 28.5874C69.397 28.1372 69.2834 27.6745 69.2834 27.1993C69.2834 26.624 69.397 26.0738 69.6241 25.5486C69.8701 24.9983 70.1446 24.4731 70.4474 23.9729C70.7691 23.4477 71.0435 22.9725 71.2706 22.5473C71.7059 21.6969 72.075 20.8841 72.3778 20.1087C72.6806 19.3334 72.832 18.7081 72.832 18.2329C72.832 17.9578 72.7658 17.7452 72.6333 17.5951C72.4062 17.37 72.2926 17.1074 72.2926 16.8073C72.2926 16.6072 72.3778 16.5072 72.5481 16.5072C72.6617 16.5072 72.8036 16.5822 72.974 16.7323C73.1064 16.8323 73.2484 16.9699 73.3998 17.1449C73.5512 17.32 73.6931 17.5201 73.8256 17.7452C73.9013 17.8452 73.9675 17.9453 74.0243 18.0453C74.0811 18.1454 74.1379 18.2454 74.1947 18.3455C74.2325 18.4705 74.2704 18.6081 74.3082 18.7581C74.3461 18.8832 74.365 19.0333 74.365 19.2083C74.365 19.6085 74.2609 20.0462 74.0527 20.5214C73.8445 20.9966 73.5796 21.5093 73.2578 22.0596C72.955 22.6098 72.6333 23.1725 72.2926 23.7478C72.1412 23.9979 71.9046 24.4231 71.5829 25.0233C71.2801 25.5986 71.0057 26.1738 70.7596 26.7491C70.6461 27.0492 70.542 27.3243 70.4474 27.5745C70.3717 27.8246 70.3338 28.0497 70.3338 28.2497C70.3338 28.5749 70.4758 28.7375 70.7596 28.7375C71.0246 28.7375 71.3463 28.5999 71.7249 28.3248C72.1223 28.0246 72.5008 27.6995 72.8604 27.3494C73.22 26.9742 73.4849 26.6991 73.6553 26.524C74.2609 25.8487 74.8854 25.1484 75.5289 24.4231C76.1913 23.6728 76.8253 22.96 77.4309 22.2847C77.5256 22.1846 77.6486 22.1346 77.8 22.1346C78.0649 22.1346 78.2731 22.2346 78.4245 22.4347C78.5002 22.5098 78.5381 22.6473 78.5381 22.8474C78.5381 23.2476 78.3867 23.8228 78.0839 24.5732C78.0082 24.7983 77.923 25.0359 77.8284 25.286C77.7337 25.5111 77.6486 25.7487 77.5729 25.9988C77.4972 26.2489 77.4215 26.4865 77.3458 26.7116C77.289 26.9367 77.2511 27.1618 77.2322 27.3869C77.2133 27.4619 77.2038 27.5369 77.2038 27.612C77.2038 27.687 77.2038 27.762 77.2038 27.8371C77.2038 28.2372 77.289 28.5124 77.4593 28.6624C77.6297 28.7875 77.8378 28.85 78.0839 28.85C78.4435 28.85 78.8125 28.775 79.191 28.6249C79.5885 28.4498 79.9102 28.3123 80.1562 28.2122C81.1214 27.712 82.0961 27.0367 83.0802 26.1864C84.0833 25.336 84.9823 24.4856 85.7771 23.6352C85.9664 23.4101 86.1462 23.2101 86.3165 23.035C86.5058 22.8599 86.695 22.6473 86.8843 22.3972C87.0168 22.2221 87.1209 22.1221 87.1966 22.0971H87.2533C87.4048 22.0971 87.4521 22.2096 87.3953 22.4347C87.3574 22.6348 87.2817 22.8349 87.1682 23.035C86.9979 23.4101 86.6856 23.8854 86.2314 24.4606C85.7771 25.0108 85.2283 25.5986 84.5848 26.2239C83.9603 26.8241 83.2884 27.3994 82.5693 27.9496C81.8501 28.4999 81.1309 28.9501 80.4117 29.3002C79.6926 29.6253 79.0302 29.7879 78.4245 29.7879Z" fill="#002434"/>
<path d="M62.6508 29.7879C62.083 29.7879 61.5626 29.6003 61.0895 29.2252C60.6352 28.825 60.4081 28.1122 60.4081 27.0867C60.4081 26.7116 60.446 26.3239 60.5217 25.9237C60.5974 25.4985 60.6825 25.0859 60.7772 24.6857C60.4554 25.1109 60.058 25.6111 59.5849 26.1863C59.1117 26.7366 58.5913 27.2743 58.0235 27.7995C57.4747 28.3248 56.9163 28.7625 56.3486 29.1126C55.7997 29.4378 55.2793 29.6003 54.7872 29.6003C54.1816 29.6003 53.6895 29.3127 53.311 28.7374C53.0461 28.3623 52.9136 27.8746 52.9136 27.2743C52.9136 26.549 53.1028 25.7487 53.4813 24.8733C53.8788 23.9729 54.4087 23.085 55.0711 22.2096C55.7524 21.3342 56.5189 20.5339 57.3706 19.8086C58.2411 19.0833 59.1401 18.508 60.0675 18.0828C61.0705 17.6076 61.96 17.37 62.736 17.37C64.0986 17.37 64.78 18.1454 64.78 19.696C64.78 19.7961 64.7705 19.9211 64.7516 20.0712C64.7516 20.1963 64.7421 20.3338 64.7232 20.4839C64.6285 20.9841 64.4866 21.3217 64.2973 21.4968C64.2784 21.5218 64.2311 21.5593 64.1554 21.6094C64.0797 21.6344 64.0135 21.5969 63.9567 21.4968C63.8999 21.3718 63.8904 21.1967 63.9283 20.9716C63.9851 20.6965 64.0135 20.4589 64.0135 20.2588C64.0135 19.5585 63.7201 19.2083 63.1334 19.2083C62.8117 19.2083 62.4048 19.2959 61.9127 19.4709C61.4207 19.646 60.8907 19.8836 60.323 20.1837C59.7741 20.4589 59.2442 20.759 58.7332 21.0841C58.2411 21.4093 57.8248 21.7344 57.4841 22.0596C56.6135 22.8849 55.847 23.7978 55.1847 24.7982C54.5412 25.7737 54.1721 26.624 54.0775 27.3493C54.0586 27.4244 54.0491 27.4994 54.0491 27.5744C54.0491 27.6495 54.0491 27.712 54.0491 27.762C54.0491 28.1372 54.1059 28.3873 54.2194 28.5124C54.3519 28.6374 54.5033 28.6999 54.6737 28.6999C54.9954 28.6999 55.3644 28.5749 55.7808 28.3248C56.1972 28.0497 56.5851 27.7495 56.9447 27.4244C57.3232 27.0992 57.5882 26.8491 57.7396 26.6741C58.3263 25.9988 58.9887 25.2735 59.7268 24.4981C60.4838 23.6978 61.1557 22.9599 61.7424 22.2847C61.8559 22.2096 61.9979 22.1721 62.1682 22.1721C62.471 22.1721 62.7076 22.2596 62.8779 22.4347C62.9536 22.5098 62.9915 22.6598 62.9915 22.8849C62.9915 23.185 62.9063 23.5602 62.736 24.0104C62.4332 24.8608 62.1777 25.6236 61.9695 26.2989C61.7613 26.9492 61.6572 27.4869 61.6572 27.9121C61.6572 28.5374 61.9222 28.85 62.4521 28.85C62.8685 28.85 63.5403 28.6374 64.4677 28.2122C65.4329 27.737 66.4076 27.0742 67.3917 26.2239C68.3947 25.3735 69.2937 24.5106 70.0886 23.6352C70.1832 23.5102 70.2779 23.4101 70.3725 23.3351C70.4671 23.2601 70.5523 23.1725 70.628 23.0725C70.7226 22.9975 70.8078 22.9099 70.8835 22.8099C70.9781 22.7098 71.0822 22.6098 71.1957 22.5098C71.3093 22.4597 71.385 22.4347 71.4229 22.4347C71.5553 22.4347 71.6216 22.5223 71.6216 22.6973C71.6216 22.8474 71.5743 22.985 71.4796 23.11C71.3661 23.3101 71.0917 23.6728 70.6564 24.198C70.2211 24.7232 69.6817 25.311 69.0382 25.9612C68.4137 26.6115 67.7229 27.2368 66.9659 27.8371C66.2278 28.4373 65.4802 28.9125 64.7232 29.2627C64.4393 29.3877 64.1081 29.5003 63.7296 29.6003C63.37 29.7254 63.0104 29.7879 62.6508 29.7879Z" fill="#002434"/>
<path d="M48.9985 36.991C48.2415 36.991 47.6075 36.7284 47.0965 36.2032C46.6044 35.678 46.2354 34.9651 45.9893 34.0648C45.7622 33.1894 45.6487 32.239 45.6487 31.2135C45.6487 27.9121 46.1313 24.248 47.0965 20.2213C48.0806 16.1945 49.5095 12.1178 51.3831 7.99096C50.8911 8.29109 50.2854 8.82883 49.5663 9.60416C48.8471 10.3545 48.0711 11.2424 47.2384 12.2678C46.4246 13.2933 45.6013 14.3687 44.7686 15.4942C43.9359 16.5947 43.1505 17.6827 42.4124 18.7581C41.6932 19.8086 41.0687 20.7465 40.5387 21.5718C40.0277 22.3722 39.6776 22.985 39.4884 23.4101C39.337 23.6853 39.1382 23.8228 38.8922 23.8228C38.5894 23.8228 38.3055 23.6352 38.0405 23.2601C37.7756 22.8599 37.6431 22.4597 37.6431 22.0596C37.6431 21.9095 37.7377 21.6344 37.927 21.2342C38.0027 21.0341 38.0879 20.8215 38.1825 20.5964C38.296 20.3463 38.4191 20.0837 38.5515 19.8086C38.8165 19.2333 39.1004 18.5956 39.4032 17.8953C39.706 17.195 39.9899 16.4821 40.2548 15.7568C40.3684 15.4067 40.5293 14.944 40.7375 14.3687C40.9456 13.7685 41.1538 13.1307 41.362 12.4554C41.5891 11.7551 41.7689 11.0673 41.9014 10.392C42.0528 9.71671 42.1285 9.14146 42.1285 8.66625C42.1285 7.91593 41.9298 7.54077 41.5323 7.54077C41.2484 7.54077 40.7753 7.76587 40.1129 8.21606C39.2423 8.86634 38.315 9.79174 37.3308 10.9923C36.3656 12.1678 35.4004 13.5309 34.4352 15.0815C33.47 16.6072 32.5521 18.2329 31.6815 19.9586C30.8299 21.6844 30.0728 23.4101 29.4105 25.1359C28.7481 26.8366 28.2371 28.4498 27.8775 29.9755C27.7639 30.1756 27.6031 30.3757 27.3949 30.5757C27.1867 30.7758 26.9785 30.8759 26.7703 30.8759C26.5811 30.8759 26.4202 30.7758 26.2877 30.5757C26.1552 30.3757 26.089 30.0755 26.089 29.6754C26.089 29.4503 26.1363 29.1751 26.2309 28.85C26.2688 28.6999 26.3161 28.5374 26.3729 28.3623C26.4297 28.1872 26.477 28.0121 26.5148 27.8371C26.6095 27.5369 26.8555 26.8616 27.2529 25.8112C27.6693 24.7607 28.1708 23.5102 28.7575 22.0596C29.3442 20.5839 29.9877 18.9582 30.6879 17.1824C31.3882 15.4067 32.079 13.6184 32.7603 11.8176C33.2334 10.5671 33.6309 9.30403 33.9526 8.02848C34.2743 6.72792 34.4352 5.56491 34.4352 4.53947C34.4352 3.51402 34.1986 2.67616 33.7255 2.02588C33.2524 1.3756 32.4007 1.05046 31.1705 1.05046C29.4105 1.05046 27.5747 1.30056 25.6632 1.80078C23.7706 2.27599 21.8686 2.93877 19.9571 3.78914C18.0645 4.63951 16.2193 5.62744 14.4213 6.75293C12.6423 7.87841 10.9863 9.10395 9.45336 10.4295C7.92038 11.7301 6.57666 13.0682 5.4222 14.4438C4.26773 15.8194 3.36876 17.1824 2.72529 18.533C2.08182 19.8836 1.76009 21.1717 1.76009 22.3972C1.76009 22.5473 1.76009 22.6973 1.76009 22.8474C1.77901 22.9725 1.79794 23.0975 1.81686 23.2226C1.91149 23.9229 2.1386 24.4106 2.49819 24.6857C2.8767 24.9358 3.30253 25.0609 3.77567 25.0609C4.1731 25.0609 4.58947 25.0108 5.02476 24.9108C5.47897 24.7857 5.88588 24.6607 6.24546 24.5356C6.28331 24.5356 6.3117 24.5356 6.33063 24.5356C6.36848 24.5106 6.39687 24.4981 6.41579 24.4981C6.52935 24.4981 6.63344 24.5231 6.72807 24.5731C6.8227 24.6232 6.90786 24.6732 6.98356 24.7232C7.09712 24.8233 7.15389 24.9358 7.15389 25.0609C7.15389 25.2609 7.0498 25.3985 6.84162 25.4735C5.93319 25.8987 4.95852 26.1113 3.91761 26.1113C3.25521 26.1113 2.6212 25.9863 2.01558 25.7361C1.42889 25.486 0.946282 25.0609 0.567769 24.4606C0.189256 23.8603 0 23.06 0 22.0596C0 20.759 0.350124 19.3959 1.05037 17.9703C1.75062 16.5447 2.72529 15.1191 3.97439 13.6934C5.22348 12.2678 6.67129 10.8922 8.31782 9.56665C9.96435 8.21606 11.7339 6.96552 13.6265 5.81502C15.538 4.63951 17.5062 3.62657 19.5313 2.7762C21.5563 1.90082 23.5719 1.22553 25.578 0.750327C27.5841 0.250109 29.4956 0 31.3125 0C33.0726 0 34.3217 0.412679 35.0598 1.23804C35.7979 2.03838 36.1669 3.12635 36.1669 4.50195C36.1669 5.57742 35.9871 6.76543 35.6275 8.066C35.2869 9.34155 34.8421 10.6671 34.2933 12.0427C34.0094 12.768 33.735 13.4433 33.47 14.0686C33.224 14.6939 32.9874 15.2816 32.7603 15.8319C33.5362 14.5813 34.3406 13.3683 35.1733 12.1928C36.025 11.0173 36.8766 9.96682 37.7283 9.04142C38.5799 8.11602 39.4032 7.3782 40.1981 6.82796C41.0119 6.27772 41.7689 6.0026 42.4692 6.0026C43.0558 6.0026 43.4722 6.21519 43.7182 6.64038C43.9643 7.04055 44.0873 7.56578 44.0873 8.21606C44.0873 8.94137 43.9643 9.77924 43.7182 10.7297C43.4722 11.6551 43.1789 12.5805 42.8382 13.5059C42.5165 14.4062 42.2136 15.1941 41.9298 15.8694C41.6648 16.5197 41.4093 17.1449 41.1633 17.7452C40.9172 18.3204 40.6712 18.8957 40.4252 19.4709C41.0308 18.6706 41.7784 17.6702 42.6679 16.4696C43.5763 15.2691 44.532 14.0186 45.5351 12.718C46.3678 11.6676 47.21 10.6296 48.0617 9.60416C48.9133 8.57872 49.7555 7.64081 50.5883 6.79044C51.421 5.91506 52.1969 5.21476 52.9161 4.68953C53.1243 4.53947 53.3514 4.58949 53.5974 4.8396C53.8624 5.06469 54.0422 5.3148 54.1368 5.58992C54.1747 5.73999 54.1936 5.89005 54.1936 6.04012C54.1936 6.34025 54.1368 6.7029 54.0233 7.12809C53.9097 7.52826 53.7204 7.91593 53.4555 8.29109C52.5281 9.66669 51.6859 11.3049 50.9289 13.2057C50.1719 15.0815 49.519 17.0574 48.9701 19.1333C48.4402 21.1842 48.0333 23.1975 47.7494 25.1734C47.4655 27.1493 47.3236 28.925 47.3236 30.5007C47.3236 32.1014 47.475 33.3645 47.7778 34.2899C48.0995 35.2403 48.5632 35.7155 49.1688 35.7155C49.5852 35.7155 50.0583 35.5779 50.5883 35.3028C51.1182 35.0277 51.6481 34.6775 52.178 34.2523C52.7079 33.8522 53.1621 33.452 53.5407 33.0518C53.5785 33.0018 53.6258 32.9768 53.6826 32.9768C53.7583 32.9768 53.8056 33.0143 53.8245 33.0893C53.8624 33.1644 53.8908 33.2269 53.9097 33.2769V33.3895C53.9097 33.5145 53.8813 33.6396 53.8245 33.7646C53.7488 33.8897 53.569 34.1148 53.2852 34.4399C53.0013 34.7901 52.6417 35.1527 52.2064 35.5279C51.7711 35.9281 51.279 36.2657 50.7302 36.5408C50.1814 36.841 49.6041 36.991 48.9985 36.991Z" fill="#002434"/>
<path d="M149.933 17.8931L150.572 18.7602L150.796 17.5876C151.165 15.6617 152.601 14.5809 154.088 14.5655C155.57 14.5502 157.17 15.6119 157.696 18.2068C158.385 21.6067 156.876 25.5792 152.89 30.1941C147.692 28.8324 144.882 26.3883 144.192 22.9884C143.666 20.3934 144.65 18.4169 145.939 17.4509C147.232 16.4821 148.885 16.469 149.933 17.8931Z" stroke="#206D7F"/>
<path fill-rule="evenodd" clip-rule="evenodd" d="M160.158 10.2428L160.581 12.5887L161.872 10.8844C163.156 9.18879 165.131 9.24053 166.681 10.4406C168.221 11.6339 169.438 14.0797 168.739 17.3379C167.833 21.563 164.308 24.6309 157.643 26.2891C157.368 25.9584 157.103 25.6306 156.847 25.3057C156.697 25.5987 156.537 25.8941 156.365 26.1919C156.695 26.6045 157.039 27.0205 157.396 27.4397C164.543 25.7876 168.636 22.5377 169.676 17.6886C171.116 10.9722 165.29 6.62702 161.875 9.36445C161.599 9.58549 161.339 9.8527 161.1 10.1686C161.021 9.73378 160.906 9.32599 160.759 8.94662C158.938 4.24831 152.254 3.90879 150.813 10.6252C150.45 12.3188 150.482 14.1047 150.907 15.9828C151.125 15.6174 151.387 15.3002 151.68 15.0343C151.448 13.603 151.476 12.2515 151.75 10.9759C152.449 7.71769 154.455 6.47868 156.24 6.53096C158.036 6.58352 159.738 7.90887 160.158 10.2428Z" fill="#206D7F"/>
</svg>
