<svg width="306" height="32" viewBox="0 0 306 32" fill="none" xmlns="http://www.w3.org/2000/svg">
<path d="M108.255 25.5338C107.688 25.5338 107.167 25.373 106.694 25.0514C106.24 24.7084 106.013 24.0974 106.013 23.2184C106.013 22.8968 106.05 22.5645 106.126 22.2215C106.202 21.857 106.287 21.5033 106.382 21.1603C106.06 21.5247 105.662 21.9535 105.189 22.4466C104.716 22.9182 104.196 23.3792 103.628 23.8294C103.079 24.2796 102.521 24.6548 101.953 24.955C101.404 25.2337 100.884 25.373 100.392 25.373C99.7861 25.373 99.294 25.1265 98.9155 24.6334C98.6505 24.3118 98.5181 23.8937 98.5181 23.3792C98.5181 22.7575 98.7073 22.0714 99.0858 21.321C99.4833 20.5492 100.013 19.7882 100.676 19.0378C101.357 18.2874 102.123 17.6014 102.975 16.9797C103.846 16.3579 104.745 15.8648 105.672 15.5004C106.675 15.093 107.565 14.8894 108.34 14.8894C109.703 14.8894 110.384 15.554 110.384 16.8832C110.384 16.9689 110.375 17.0761 110.356 17.2048C110.356 17.312 110.347 17.4299 110.328 17.5585C110.233 17.9873 110.091 18.2767 109.902 18.4268C109.883 18.4482 109.836 18.4804 109.76 18.5233C109.684 18.5447 109.618 18.5125 109.561 18.4268C109.504 18.3196 109.495 18.1695 109.533 17.9766C109.59 17.7407 109.618 17.5371 109.618 17.3656C109.618 16.7653 109.325 16.4651 108.738 16.4651C108.416 16.4651 108.009 16.5402 107.517 16.6902C107.025 16.8403 106.495 17.044 105.927 17.3012C105.379 17.5371 104.849 17.7943 104.338 18.073C103.846 18.3518 103.429 18.6305 103.089 18.9092C102.218 19.6166 101.452 20.3992 100.789 21.2567C100.146 22.0928 99.7766 22.8218 99.682 23.4435C99.6631 23.5078 99.6536 23.5721 99.6536 23.6365C99.6536 23.7008 99.6536 23.7544 99.6536 23.7972C99.6536 24.1188 99.7104 24.3332 99.8239 24.4404C99.9564 24.5476 100.108 24.6012 100.278 24.6012C100.6 24.6012 100.969 24.494 101.385 24.2796C101.802 24.0438 102.19 23.7865 102.549 23.5078C102.928 23.2291 103.193 23.0147 103.344 22.8647C103.931 22.2858 104.593 21.6641 105.331 20.9995C106.088 20.3134 106.76 19.681 107.347 19.1021C107.46 19.0378 107.602 19.0056 107.773 19.0056C108.076 19.0056 108.312 19.0807 108.482 19.2307C108.558 19.2951 108.596 19.4237 108.596 19.6166C108.596 19.8739 108.511 20.1955 108.34 20.5814C108.038 21.3103 107.782 21.9642 107.574 22.5431C107.366 23.1005 107.262 23.5614 107.262 23.9259C107.262 24.4619 107.527 24.7298 108.057 24.7298C108.473 24.7298 109.145 24.5476 110.072 24.1831C111.037 23.7758 112.012 23.2077 112.996 22.4788C113.999 21.7498 114.898 21.0102 115.693 20.2598C115.788 20.1526 115.882 20.0669 115.977 20.0025C116.072 19.9382 116.157 19.8632 116.232 19.7774C116.327 19.7131 116.412 19.6381 116.488 19.5523C116.583 19.4666 116.687 19.3808 116.8 19.2951C116.914 19.2522 116.989 19.2307 117.027 19.2307C117.16 19.2307 117.226 19.3058 117.226 19.4559C117.226 19.5845 117.179 19.7024 117.084 19.8096C116.971 19.9811 116.696 20.292 116.261 20.7422C115.826 21.1924 115.286 21.6962 114.643 22.2536C114.018 22.8111 113.327 23.347 112.57 23.8616C111.832 24.3761 111.085 24.7834 110.328 25.0836C110.044 25.1908 109.713 25.2873 109.334 25.373C108.974 25.4802 108.615 25.5338 108.255 25.5338Z" fill="#002434"/>
<path d="M87.4239 26.4664C87.1968 26.4235 86.9791 26.327 86.7709 26.177C86.5817 26.0483 86.4871 25.8447 86.4871 25.566C86.4871 25.0943 86.7142 24.6012 87.1684 24.0867C87.6226 23.5507 88.1904 23.0362 88.8717 22.5431C89.553 22.05 90.2249 21.6426 90.8873 21.3211C90.4709 20.828 90.1397 20.3563 89.8937 19.9061C89.6476 19.4344 89.5246 18.9628 89.5246 18.4911C89.5246 17.8479 89.7896 17.2369 90.3195 16.6581C90.8494 16.0578 91.6916 15.4682 92.8461 14.8894C93.3949 14.6107 93.887 14.4177 94.3223 14.3105C94.7765 14.2033 95.1739 14.1497 95.5146 14.1497C95.9499 14.1497 96.3095 14.214 96.5934 14.3427C96.8772 14.4713 97.0854 14.6214 97.2179 14.7929C97.5207 15.2002 97.6721 15.6076 97.6721 16.0149C97.6721 16.5294 97.4734 16.9689 97.076 17.3334C96.6785 17.6979 96.3095 17.998 95.9688 18.2338C95.912 18.2553 95.8553 18.2874 95.7985 18.3303C95.7417 18.3732 95.6944 18.4161 95.6565 18.459C95.543 18.5447 95.4767 18.5983 95.4578 18.6197C95.2875 18.7913 95.1172 18.8341 94.9468 18.7484C94.8522 18.6841 94.8049 18.5983 94.8049 18.4911C94.8049 18.3839 94.8522 18.2982 94.9468 18.2338C95.155 18.1266 95.3916 17.923 95.6565 17.6228C95.9404 17.3012 96.1865 16.9689 96.3946 16.6259C96.6218 16.2615 96.7353 15.9506 96.7353 15.6933C96.7353 15.5647 96.7069 15.4575 96.6501 15.3717C96.5366 15.2431 96.3095 15.1788 95.9688 15.1788C95.5525 15.1788 95.0604 15.286 94.4926 15.5004C93.9438 15.7148 93.4044 16.0042 92.8745 16.3687C92.3635 16.7117 91.9376 17.0976 91.597 17.5264C91.2563 17.9337 91.086 18.341 91.086 18.7484C91.086 19.1128 91.1901 19.4666 91.3983 19.8096C91.6254 20.1312 91.8714 20.4421 92.1364 20.7422C92.6663 20.4849 93.2908 20.2705 94.01 20.099C94.7481 19.9061 95.5051 19.756 96.2811 19.6488C97.076 19.5416 97.8425 19.4666 98.5806 19.4237C99.3187 19.3808 99.9527 19.3594 100.483 19.3594C100.804 19.3594 101.079 19.3594 101.306 19.3594C101.533 19.3594 101.713 19.3808 101.845 19.4237C102.016 19.4666 102.101 19.5523 102.101 19.681C102.101 19.7667 102.063 19.8418 101.987 19.9061C101.93 19.9704 101.864 20.0026 101.788 20.0026C101.656 20.0026 101.514 19.9918 101.363 19.9704C101.23 19.949 101.069 19.9382 100.88 19.9382C100.293 19.9382 99.5931 19.9918 98.7793 20.099C97.9655 20.1848 97.1422 20.3027 96.3095 20.4528C95.4957 20.5814 94.7576 20.7315 94.0952 20.903C93.4328 21.0745 92.9596 21.246 92.6758 21.4175C92.9975 21.9106 93.1583 22.4359 93.1583 22.9933C93.1583 23.9795 92.7325 24.7513 91.8809 25.3087C91.3131 25.716 90.6696 26.0162 89.9505 26.2091C89.2502 26.4235 88.6257 26.5307 88.0768 26.5307C87.9443 26.5307 87.8213 26.52 87.7078 26.4986C87.6131 26.4986 87.5185 26.4878 87.4239 26.4664ZM88.0484 25.5338C88.2566 25.5338 88.6351 25.4373 89.184 25.2444C89.7517 25.0729 90.2722 24.8156 90.7453 24.4726C91.3888 24.0224 91.7105 23.5078 91.7105 22.929C91.7105 22.5645 91.5591 22.1786 91.2563 21.7713C90.8967 21.9213 90.452 22.2108 89.9221 22.6395C89.4111 23.0469 88.9569 23.4757 88.5594 23.9259C88.1241 24.419 87.8497 24.8263 87.7361 25.1479C87.7361 25.1693 87.7267 25.1908 87.7078 25.2122C87.7078 25.2337 87.7078 25.2658 87.7078 25.3087C87.7078 25.4373 87.8213 25.5124 88.0484 25.5338Z" fill="#002434"/>
<path d="M84.6545 14.5678C84.4274 14.5678 84.2665 14.5035 84.1719 14.3748C84.0772 14.2247 84.0299 14.0425 84.0299 13.8281C84.0299 13.5923 84.0678 13.3886 84.1435 13.2171C84.2192 13.0456 84.4179 12.8955 84.7396 12.7669C85.0803 12.6383 85.4399 12.5418 85.8184 12.4775C86.2158 12.4132 86.5187 12.381 86.7268 12.381C86.9539 12.381 87.0675 12.4346 87.0675 12.5418C87.0675 12.6275 87.0202 12.7026 86.9256 12.7669C86.8877 12.7883 86.8309 12.8205 86.7552 12.8634C86.6984 12.9063 86.6227 12.9491 86.5281 12.992C86.3956 13.0563 86.2442 13.1421 86.0739 13.2493C85.9225 13.335 85.8279 13.4422 85.79 13.5709C85.6765 13.8496 85.5156 14.0854 85.3074 14.2783C85.0992 14.4713 84.8816 14.5678 84.6545 14.5678ZM79.942 25.4373C79.4121 25.4373 78.9295 25.3194 78.4942 25.0836C78.0778 24.8478 77.8696 24.3975 77.8696 23.7329C77.8696 23.0898 78.0021 22.468 78.2671 21.8677C78.532 21.2674 78.8632 20.6993 79.2607 20.1633C79.677 19.6274 80.0745 19.1557 80.453 18.7484C80.7747 18.4268 81.0302 18.1695 81.2195 17.9766C81.2005 17.9551 81.1911 17.9122 81.1911 17.8479C81.1911 17.6764 81.2573 17.5049 81.3898 17.3334C81.598 16.9904 81.9387 16.7009 82.4118 16.4651C82.5253 16.4222 82.6389 16.4008 82.7525 16.4008C82.9985 16.4008 83.2445 16.4651 83.4905 16.5938C83.7366 16.7009 83.8596 16.8832 83.8596 17.1404C83.8596 17.2905 83.8123 17.4299 83.7177 17.5585C83.623 17.6871 83.5379 17.7836 83.4622 17.8479C83.3108 17.9766 83.0742 18.2017 82.7525 18.5233C82.4496 18.8234 82.1184 19.1771 81.7588 19.5845C81.3993 19.9704 81.0491 20.3563 80.7085 20.7422C80.3867 21.1067 80.1407 21.4175 79.9704 21.6748C79.308 22.6395 78.9768 23.3685 78.9768 23.8616C78.9768 24.0759 79.0525 24.2582 79.2039 24.4083C79.3742 24.5369 79.6676 24.6012 80.0839 24.6012C80.7463 24.6012 81.3993 24.4833 82.0427 24.2475C82.7051 23.9902 83.3108 23.7008 83.8596 23.3792C84.3138 23.1219 84.7396 22.8325 85.1371 22.5109C85.5534 22.1893 85.9603 21.857 86.3578 21.514C86.7552 21.1495 87.1527 20.7743 87.5501 20.3884C87.9665 20.0025 88.3828 19.6166 88.7992 19.2307C88.856 19.2093 88.9222 19.1986 88.9979 19.1986C89.1493 19.1986 89.225 19.2736 89.225 19.4237C89.225 19.5523 89.1777 19.6702 89.0831 19.7774C88.9695 19.9489 88.733 20.2277 88.3734 20.6136C88.0138 20.9995 87.569 21.439 87.0391 21.9321C86.5281 22.4251 85.9509 22.9075 85.3074 23.3792C84.6639 23.8508 84.0015 24.2582 83.3202 24.6012C82.9606 24.7727 82.4591 24.9549 81.8156 25.1479C81.1722 25.3408 80.5476 25.4373 79.942 25.4373Z" fill="#002434"/>
<path d="M70.3681 25.7589C70.0085 25.7589 69.6584 25.7268 69.3177 25.6624C68.996 25.5981 68.7026 25.4909 68.4377 25.3409C67.8321 24.9978 67.4252 24.5047 67.217 23.8616C67.0277 23.2184 66.9331 22.5967 66.9331 21.9964C66.9331 21.7177 66.9425 21.4604 66.9615 21.2246C66.9993 20.9888 67.0277 20.7636 67.0466 20.5493C66.9899 20.5707 66.9426 20.5814 66.9047 20.5814C66.8669 20.56 66.829 20.5493 66.7911 20.5493C66.6208 20.5064 66.5356 20.4206 66.5356 20.292C66.5356 20.1848 66.583 20.0883 66.6776 20.0026C66.7344 19.9597 66.8195 19.8846 66.9331 19.7774C67.0656 19.6488 67.1697 19.5416 67.2454 19.4559C67.3968 18.877 67.6239 18.1374 67.9267 17.2369C68.2295 16.3365 68.6553 15.361 69.2042 14.3105C69.6205 13.5173 70.141 12.5847 70.7655 11.5127C71.3901 10.4408 72.0998 9.3474 72.8947 8.23257C73.6895 7.0963 74.5317 6.0458 75.4212 5.08104C76.3107 4.09485 77.2192 3.30161 78.1465 2.70132C79.0928 2.10103 80.0296 1.80088 80.957 1.80088C81.4491 1.80088 81.8087 1.96167 82.0358 2.28326C82.2629 2.5834 82.3764 2.99074 82.3764 3.50528C82.3764 4.2342 82.1398 5.15608 81.6667 6.27091C81.1746 7.42861 80.5596 8.522 79.8215 9.55107C79.0834 10.5801 78.3263 11.5127 77.5504 12.3489C76.7744 13.185 76.0836 13.9032 75.478 14.5035C74.721 15.2324 73.9829 15.897 73.2637 16.4973C72.5635 17.0761 71.9105 17.58 71.3049 18.0087C70.7182 18.4375 70.1788 18.8127 69.6868 19.1343C69.2136 19.4344 68.8446 19.681 68.5796 19.8739C68.4093 20.4528 68.3241 21.1174 68.3241 21.8677C68.3241 22.661 68.4755 23.3578 68.7783 23.958C69.1001 24.5583 69.6678 24.8585 70.4816 24.8585C71.0683 24.8585 71.6834 24.7298 72.3269 24.4726C72.9893 24.1939 73.5855 23.9044 74.1154 23.6043C74.9102 23.1541 75.6767 22.661 76.4148 22.125C77.1529 21.5676 77.8059 21.0531 78.3736 20.5814C78.9414 20.0883 79.3483 19.7131 79.5943 19.4559C79.67 19.3701 79.7363 19.3272 79.7931 19.3272C79.8498 19.3058 79.8877 19.2951 79.9066 19.2951C80.0012 19.338 80.0486 19.4237 80.0486 19.5523C80.0486 19.7453 79.9539 19.949 79.7647 20.1634C78.9887 21.0423 78.1371 21.8892 77.2097 22.7039C76.2824 23.5185 75.2982 24.1939 74.2573 24.7298C73.6328 25.0514 72.9798 25.298 72.2985 25.4695C71.6361 25.6624 70.9926 25.7589 70.3681 25.7589ZM68.9771 18.5554C69.3367 18.3196 69.8476 17.9551 70.51 17.462C71.1914 16.9689 71.9295 16.4008 72.7243 15.7576C73.5192 15.093 74.2668 14.407 74.967 13.6995C75.3266 13.335 75.7619 12.8741 76.2729 12.3167C76.8028 11.7378 77.3422 11.1054 77.891 10.4193C78.4588 9.71186 78.9793 8.98293 79.4524 8.23257C79.9445 7.46077 80.3419 6.69968 80.6447 5.94932C80.9475 5.17752 81.0989 4.45931 81.0989 3.7947C81.0989 3.49456 81.0422 3.29089 80.9286 3.18369C80.834 3.05506 80.7015 2.99074 80.5312 2.99074C80.1905 2.99074 79.7363 3.18369 79.1685 3.56959C78.6197 3.93406 78.0235 4.41643 77.3801 5.01672C76.7366 5.61702 76.112 6.28162 75.5064 7.01055C74.579 8.12538 73.6801 9.39027 72.8095 10.8052C71.9579 12.1988 71.2008 13.5816 70.5384 14.9537C69.876 16.3043 69.3556 17.5049 68.9771 18.5554Z" fill="#002434"/>
<path d="M57.7964 25.5981C57.3611 25.5981 56.9448 25.5445 56.5473 25.4373C56.1499 25.3301 55.7903 25.1693 55.4686 24.9549C54.6358 24.3547 54.2195 23.5614 54.2195 22.5752C54.2195 21.8034 54.4466 21.0209 54.9008 20.2277C55.3739 19.413 55.9796 18.6412 56.7177 17.9122C57.4558 17.1833 58.2317 16.583 59.0455 16.1114C59.5376 15.8112 60.0297 15.5968 60.5217 15.4682C61.0138 15.3396 61.4491 15.2753 61.8276 15.2753C62.49 15.2753 62.9253 15.4253 63.1335 15.7255C63.3606 16.0042 63.4741 16.3365 63.4741 16.7224C63.4741 17.1297 63.3606 17.5263 63.1335 17.9122C62.9064 18.2767 62.5846 18.6412 62.1683 19.0056C61.4491 19.6702 60.4649 20.2598 59.2159 20.7743C57.9857 21.2889 56.7177 21.6533 55.4118 21.8677C55.2225 22.2965 55.1279 22.6931 55.1279 23.0576C55.1658 23.6579 55.4402 24.0867 55.9512 24.3439C56.4811 24.5798 57.0678 24.6977 57.7113 24.6977C57.9384 24.6977 58.156 24.687 58.3642 24.6655C58.5724 24.6441 58.7711 24.6119 58.9604 24.569C59.9066 24.3547 60.8718 23.9688 61.856 23.4113C62.859 22.8539 63.8243 22.2108 64.7516 21.4818C65.679 20.7529 66.5117 20.024 67.2498 19.2951C67.3633 19.2522 67.439 19.2307 67.4769 19.2307C67.6094 19.2307 67.6756 19.3058 67.6756 19.4559C67.6756 19.563 67.6378 19.6702 67.5621 19.7774C67.4296 20.0347 67.1551 20.367 66.7388 20.7743C66.3413 21.1817 65.8871 21.5997 65.3762 22.0285C64.8652 22.4359 64.3636 22.8325 63.8716 23.2184C63.3984 23.5829 63.001 23.8616 62.6792 24.0545C61.9979 24.4833 61.222 24.8477 60.3514 25.1479C59.4808 25.448 58.6292 25.5981 57.7964 25.5981ZM55.8944 20.9673C56.5 20.7958 57.2003 20.5814 57.9951 20.3241C58.79 20.0454 59.5471 19.7238 60.2662 19.3594C60.9854 18.9735 61.5248 18.5554 61.8844 18.1052C62.0358 17.9337 62.1399 17.7622 62.1966 17.5907C62.2534 17.3977 62.2818 17.2369 62.2818 17.1083C62.2818 17.0011 62.244 16.9046 62.1683 16.8189C62.1115 16.7331 61.9222 16.6902 61.6005 16.6902C61.1463 16.6902 60.5596 16.9046 59.8404 17.3334C59.1212 17.7407 58.402 18.2767 57.6829 18.9413C56.9826 19.5845 56.3865 20.2598 55.8944 20.9673Z" fill="#002434"/>
<path d="M48.9985 31.7082C48.2415 31.7082 47.6075 31.4831 47.0965 31.0329C46.6044 30.5827 46.2353 29.9717 45.9893 29.1999C45.7622 28.4495 45.6486 27.6348 45.6486 26.7558C45.6486 23.9259 46.1313 20.7851 47.0965 17.3334C48.0806 13.8817 49.5095 10.3872 51.3831 6.84975C50.891 7.10702 50.2854 7.56795 49.5662 8.23256C48.8471 8.87573 48.0711 9.63681 47.2384 10.5158C46.4246 11.3948 45.6013 12.3167 44.7686 13.2814C43.9359 14.2247 43.1505 15.1573 42.4124 16.0792C41.6932 16.9797 41.0686 17.7836 40.5387 18.4911C40.0277 19.1771 39.6776 19.7024 39.4883 20.0669C39.3369 20.3027 39.1382 20.4206 38.8922 20.4206C38.5894 20.4206 38.3055 20.2598 38.0405 19.9382C37.7756 19.5952 37.6431 19.2522 37.6431 18.9092C37.6431 18.7805 37.7377 18.5447 37.927 18.2017C38.0027 18.0302 38.0879 17.8479 38.1825 17.655C38.296 17.4406 38.419 17.2155 38.5515 16.9797C38.8165 16.4866 39.1004 15.9399 39.4032 15.3396C39.706 14.7393 39.9899 14.1283 40.2548 13.5065C40.3684 13.2064 40.5293 12.8098 40.7374 12.3167C40.9456 11.8021 41.1538 11.2555 41.362 10.6766C41.5891 10.0763 41.7689 9.48674 41.9014 8.90789C42.0528 8.32904 42.1285 7.83594 42.1285 7.4286C42.1285 6.78543 41.9298 6.46385 41.5323 6.46385C41.2484 6.46385 40.7753 6.6568 40.1129 7.0427C39.2423 7.60011 38.315 8.39335 37.3308 9.42242C36.3656 10.4301 35.4004 11.5985 34.4352 12.9277C33.47 14.2355 32.5521 15.629 31.6815 17.1083C30.8299 18.5876 30.0728 20.0669 29.4104 21.5462C28.748 23.004 28.2371 24.3868 27.8775 25.6946C27.7639 25.8661 27.603 26.0376 27.3949 26.2091C27.1867 26.3806 26.9785 26.4664 26.7703 26.4664C26.5811 26.4664 26.4202 26.3806 26.2877 26.2091C26.1552 26.0376 26.089 25.7803 26.089 25.4373C26.089 25.2444 26.1363 25.0085 26.2309 24.7298C26.2688 24.6012 26.3161 24.4619 26.3729 24.3118C26.4296 24.1617 26.477 24.0116 26.5148 23.8616C26.6094 23.6043 26.8555 23.0254 27.2529 22.125C27.6693 21.2246 28.1708 20.1526 28.7575 18.9092C29.3442 17.6443 29.9877 16.2507 30.6879 14.7286C31.3882 13.2064 32.079 11.6735 32.7603 10.1299C33.2334 9.05796 33.6309 7.97529 33.9526 6.88191C34.2743 5.76708 34.4352 4.77017 34.4352 3.89117C34.4352 3.01217 34.1986 2.29397 33.7255 1.73656C33.2523 1.17914 32.4007 0.900436 31.1705 0.900436C29.4104 0.900436 27.5747 1.11483 25.6632 1.54361C23.7706 1.95095 21.8686 2.51908 19.9571 3.248C18.0645 3.97693 16.2193 4.82377 14.4213 5.78852C12.6423 6.75327 10.9863 7.80378 9.45335 8.94005C7.92038 10.0549 6.57665 11.2019 5.42218 12.381C4.26772 13.5601 3.36876 14.7286 2.72528 15.8863C2.08181 17.044 1.76008 18.1481 1.76008 19.1986C1.76008 19.3272 1.76008 19.4559 1.76008 19.5845C1.779 19.6917 1.79794 19.7989 1.81686 19.9061C1.91149 20.5064 2.13858 20.9244 2.49817 21.1603C2.87668 21.3746 3.30251 21.4818 3.77565 21.4818C4.17309 21.4818 4.58947 21.439 5.02476 21.3532C5.47897 21.246 5.88587 21.1388 6.24546 21.0316C6.28331 21.0316 6.3117 21.0316 6.33062 21.0316C6.36848 21.0102 6.39686 20.9995 6.41579 20.9995C6.52934 20.9995 6.63342 21.0209 6.72805 21.0638C6.82268 21.1067 6.90785 21.1495 6.98355 21.1924C7.0971 21.2782 7.15388 21.3746 7.15388 21.4818C7.15388 21.6533 7.0498 21.7713 6.84162 21.8356C5.93319 22.2 4.95851 22.3823 3.9176 22.3823C3.25521 22.3823 2.6212 22.2751 2.01558 22.0607C1.42888 21.8463 0.946272 21.4818 0.567759 20.9673C0.189246 20.4528 0 19.7667 0 18.9092C0 17.7943 0.350122 16.6259 1.05037 15.4039C1.75062 14.1819 2.72529 12.9599 3.97439 11.7378C5.22348 10.5158 6.67129 9.33667 8.31782 8.2004C9.96435 7.0427 11.7339 5.97075 13.6265 4.98456C15.5379 3.97693 17.5062 3.10865 19.5313 2.37972C21.5563 1.62936 23.5719 1.05051 25.578 0.64317C27.5841 0.21439 29.4956 0 31.3125 0C33.0726 0 34.3217 0.353743 35.0598 1.06123C35.7979 1.74727 36.1669 2.67987 36.1669 3.85901C36.1669 4.78089 35.9871 5.79924 35.6275 6.91406C35.2868 8.00745 34.8421 9.14372 34.2933 10.3229C34.0094 10.9446 33.7349 11.5234 33.47 12.0594C33.224 12.5954 32.9874 13.0992 32.7603 13.5709C33.5362 12.4989 34.3406 11.4591 35.1733 10.4515C36.025 9.44386 36.8766 8.54343 37.7283 7.75018C38.5799 6.95694 39.4032 6.32449 40.1981 5.85284C41.0119 5.38118 41.7689 5.14535 42.4691 5.14535C43.0558 5.14535 43.4722 5.32758 43.7182 5.69204C43.9643 6.03507 44.0873 6.48529 44.0873 7.0427C44.0873 7.66443 43.9643 8.38263 43.7182 9.19731C43.4722 9.99056 43.1789 10.7838 42.8382 11.577C42.5165 12.3488 42.2136 13.0242 41.9298 13.603C41.6648 14.1604 41.4093 14.6964 41.1633 15.2109C40.9172 15.704 40.6712 16.1971 40.4252 16.6902C41.0308 16.0042 41.7784 15.1466 42.6679 14.1176C43.5763 13.0885 44.532 12.0165 45.5351 10.9017C46.3678 10.0013 47.21 9.11156 48.0617 8.23256C48.9133 7.35356 49.7555 6.5496 50.5882 5.82068C51.421 5.07031 52.1969 4.47002 52.9161 4.0198C53.1243 3.89117 53.3514 3.93405 53.5974 4.14844C53.8624 4.34139 54.0422 4.55578 54.1368 4.79161C54.1746 4.92024 54.1936 5.04888 54.1936 5.17751C54.1936 5.43478 54.1368 5.74564 54.0232 6.1101C53.9097 6.45313 53.7204 6.78543 53.4555 7.10702C52.5281 8.28616 51.6859 9.69041 50.9289 11.3198C50.1719 12.9277 49.5189 14.6214 48.9701 16.4008C48.4402 18.1588 48.0333 19.8846 47.7494 21.5783C47.4655 23.272 47.3236 24.7942 47.3236 26.1448C47.3236 27.5169 47.475 28.5996 47.7778 29.3928C48.0995 30.2075 48.5632 30.6148 49.1688 30.6148C49.5852 30.6148 50.0583 30.4969 50.5882 30.2611C51.1182 30.0253 51.6481 29.7251 52.178 29.3607C52.7079 29.0176 53.1621 28.6746 53.5406 28.3316C53.5785 28.2887 53.6258 28.2673 53.6826 28.2673C53.7583 28.2673 53.8056 28.2994 53.8245 28.3637C53.8624 28.4281 53.8908 28.4817 53.9097 28.5245V28.621C53.9097 28.7282 53.8813 28.8354 53.8245 28.9426C53.7488 29.0498 53.569 29.2427 53.2851 29.5214C53.0013 29.8216 52.6417 30.1325 52.2064 30.454C51.7711 30.7971 51.279 31.0865 50.7302 31.3223C50.1813 31.5796 49.6041 31.7082 48.9985 31.7082Z" fill="#002434"/>
<path d="M290.344 25.7589C289.643 25.7589 289.132 25.5445 288.811 25.1157C288.489 24.687 288.328 24.2046 288.328 23.6686C288.328 23.4971 288.338 23.3363 288.357 23.1862C288.394 23.0147 288.432 22.8432 288.47 22.6717C288.603 22.2429 288.839 21.7177 289.18 21.0959C289.539 20.4742 289.937 19.8846 290.372 19.3272C290.807 18.7484 291.224 18.3303 291.621 18.073C291.432 17.8372 291.337 17.5478 291.337 17.2048C291.337 16.433 291.867 15.8648 292.927 15.5004C293.192 15.3932 293.476 15.3289 293.779 15.3074C294.1 15.2645 294.432 15.2431 294.772 15.2431C295.208 15.2431 295.633 15.2753 296.05 15.3396C296.655 15.4468 297.185 15.7469 297.64 16.24C298.094 16.7117 298.359 17.2905 298.434 17.9766C298.472 18.2124 298.472 18.4482 298.434 18.6841C298.737 18.7055 299.031 18.7162 299.314 18.7162C299.617 18.6948 299.892 18.6841 300.138 18.6841C300.705 18.6841 301.283 18.6412 301.869 18.5554C302.475 18.4482 303.024 18.3303 303.516 18.2017C304.027 18.0516 304.405 17.9015 304.652 17.7515C304.803 17.6871 304.916 17.655 304.992 17.655C305.144 17.655 305.238 17.7193 305.276 17.8479C305.276 18.0623 305.096 18.266 304.737 18.4589C304.32 18.6733 303.686 18.8877 302.835 19.1021C301.983 19.3165 301.084 19.4451 300.138 19.488C299.911 19.5095 299.636 19.5309 299.314 19.5523C299.012 19.5523 298.671 19.5523 298.292 19.5523C298.084 20.4099 297.677 21.2139 297.072 21.9642C296.485 22.7146 295.794 23.3792 294.999 23.958C294.205 24.5155 293.391 24.955 292.558 25.2765C291.744 25.5981 291.006 25.7589 290.344 25.7589ZM297.412 18.6197C297.507 18.2982 297.554 18.0194 297.554 17.7836C297.554 17.3977 297.412 17.0654 297.129 16.7867C296.864 16.508 296.353 16.3686 295.596 16.3686C294.82 16.3686 294.167 16.4973 293.637 16.7545C293.126 16.9904 292.87 17.2048 292.87 17.3977C292.87 17.4406 292.908 17.5049 292.984 17.5907C293.06 17.6764 293.211 17.7622 293.438 17.8479C294.044 18.0623 294.687 18.2338 295.368 18.3625C296.05 18.4911 296.731 18.5769 297.412 18.6197ZM290.883 24.8263C291.243 24.7406 291.687 24.5476 292.217 24.2475C292.766 23.9473 293.334 23.5721 293.921 23.1219C294.526 22.6503 295.085 22.1357 295.596 21.5783C296.125 21.0423 296.608 20.3563 297.043 19.5202C296.343 19.5202 295.652 19.5095 294.971 19.488C294.309 19.4666 293.712 19.3165 293.183 19.0378C292.955 19.0592 292.634 19.2629 292.217 19.6488C291.801 20.0133 291.385 20.4742 290.968 21.0316C290.552 21.589 290.192 22.1572 289.889 22.736C289.606 23.2934 289.464 23.7758 289.464 24.1832C289.464 24.3761 289.52 24.5476 289.634 24.6977C289.766 24.8263 289.994 24.8906 290.315 24.8906C290.391 24.8906 290.476 24.8906 290.571 24.8906C290.665 24.8692 290.77 24.8478 290.883 24.8263Z" fill="#002434"/>
<path d="M286.524 14.5678C286.297 14.5678 286.136 14.5035 286.041 14.3748C285.947 14.2248 285.9 14.0425 285.9 13.8281C285.9 13.5923 285.937 13.3886 286.013 13.2171C286.089 13.0456 286.288 12.8955 286.609 12.7669C286.95 12.6383 287.31 12.5418 287.688 12.4775C288.085 12.4132 288.388 12.381 288.596 12.381C288.824 12.381 288.937 12.4346 288.937 12.5418C288.937 12.6276 288.89 12.7026 288.795 12.7669C288.757 12.7883 288.701 12.8205 288.625 12.8634C288.568 12.9063 288.492 12.9491 288.398 12.992C288.265 13.0563 288.114 13.1421 287.944 13.2493C287.792 13.335 287.697 13.4422 287.66 13.5709C287.546 13.8496 287.385 14.0854 287.177 14.2784C286.969 14.4713 286.751 14.5678 286.524 14.5678ZM281.812 25.4373C281.282 25.4373 280.799 25.3194 280.364 25.0836C279.947 24.8478 279.739 24.3975 279.739 23.7329C279.739 23.0898 279.872 22.468 280.137 21.8677C280.402 21.2675 280.733 20.6993 281.13 20.1633C281.547 19.6274 281.944 19.1557 282.323 18.7484C282.644 18.4268 282.9 18.1695 283.089 17.9766C283.07 17.9551 283.061 17.9123 283.061 17.8479C283.061 17.6764 283.127 17.5049 283.259 17.3334C283.468 16.9904 283.808 16.701 284.281 16.4651C284.395 16.4222 284.509 16.4008 284.622 16.4008C284.868 16.4008 285.114 16.4651 285.36 16.5938C285.606 16.701 285.729 16.8832 285.729 17.1405C285.729 17.2905 285.682 17.4299 285.587 17.5585C285.493 17.6871 285.407 17.7836 285.332 17.8479C285.18 17.9766 284.944 18.2017 284.622 18.5233C284.319 18.8234 283.988 19.1772 283.628 19.5845C283.269 19.9704 282.919 20.3563 282.578 20.7422C282.256 21.1067 282.01 21.4175 281.84 21.6748C281.178 22.6395 280.846 23.3685 280.846 23.8616C280.846 24.076 280.922 24.2582 281.074 24.4083C281.244 24.5369 281.537 24.6012 281.954 24.6012C282.616 24.6012 283.269 24.4833 283.912 24.2475C284.575 23.9902 285.18 23.7008 285.729 23.3792C286.183 23.1219 286.609 22.8325 287.007 22.5109C287.423 22.1893 287.83 21.857 288.227 21.514C288.625 21.1495 289.022 20.7744 289.42 20.3885C289.836 20.0026 290.252 19.6167 290.669 19.2308C290.726 19.2093 290.792 19.1986 290.868 19.1986C291.019 19.1986 291.095 19.2736 291.095 19.4237C291.095 19.5523 291.047 19.6702 290.953 19.7774C290.839 19.949 290.603 20.2277 290.243 20.6136C289.883 20.9995 289.439 21.439 288.909 21.9321C288.398 22.4252 287.821 22.9075 287.177 23.3792C286.534 23.8508 285.871 24.2582 285.19 24.6012C284.83 24.7727 284.329 24.955 283.685 25.1479C283.042 25.3409 282.417 25.4373 281.812 25.4373Z" fill="#002434"/>
<path d="M272.391 25.5981C271.956 25.5981 271.539 25.5445 271.142 25.4373C270.744 25.3301 270.385 25.1693 270.063 24.955C269.23 24.3547 268.814 23.5614 268.814 22.5752C268.814 21.8034 269.041 21.0209 269.495 20.2277C269.968 19.413 270.574 18.6412 271.312 17.9123C272.05 17.1833 272.826 16.583 273.64 16.1114C274.151 15.8112 274.653 15.5969 275.145 15.4682C275.637 15.3396 276.081 15.2753 276.479 15.2753C276.914 15.2753 277.302 15.3503 277.643 15.5004C277.983 15.6504 278.173 15.8756 278.211 16.1757C278.286 16.7974 278.135 17.3763 277.756 17.9123C277.378 18.4268 276.924 18.8877 276.394 19.2951C275.864 19.7024 275.4 20.0347 275.003 20.292C274.946 20.3134 274.889 20.3456 274.832 20.3885C274.794 20.4099 274.757 20.4206 274.719 20.4206C274.586 20.4206 274.511 20.3777 274.492 20.292C274.473 20.1848 274.473 20.0883 274.492 20.0026C274.567 19.7238 274.804 19.4666 275.201 19.2308C275.447 19.0807 275.703 18.8877 275.968 18.6519C276.233 18.3946 276.46 18.1266 276.649 17.8479C276.838 17.5478 276.933 17.3012 276.933 17.1083C276.933 17.0011 276.886 16.9046 276.791 16.8189C276.696 16.7331 276.488 16.6902 276.167 16.6902C275.788 16.6902 275.324 16.8296 274.776 17.1083C274.227 17.387 273.659 17.7622 273.072 18.2338C272.486 18.6841 271.937 19.1879 271.426 19.7453C270.934 20.3027 270.527 20.8601 270.205 21.4175C269.883 21.9749 269.722 22.4895 269.722 22.9611C269.722 23.5829 269.987 24.0331 270.517 24.3118C271.047 24.5691 271.643 24.6977 272.306 24.6977C272.533 24.6977 272.75 24.687 272.959 24.6655C273.167 24.6441 273.366 24.6119 273.555 24.5691C274.501 24.3547 275.466 23.9688 276.45 23.4114C277.454 22.8539 278.419 22.2108 279.346 21.4818C280.273 20.7529 281.106 20.024 281.844 19.2951C281.958 19.2522 282.034 19.2308 282.071 19.2308C282.204 19.2308 282.27 19.3058 282.27 19.4559C282.27 19.5631 282.232 19.6703 282.157 19.7774C282.024 20.0347 281.75 20.367 281.333 20.7744C280.936 21.1817 280.482 21.5998 279.971 22.0285C279.46 22.4359 278.958 22.8325 278.466 23.2184C277.993 23.5829 277.595 23.8616 277.274 24.0545C276.592 24.4833 275.816 24.8478 274.946 25.1479C274.075 25.448 273.224 25.5981 272.391 25.5981Z" fill="#002434"/>
<path d="M265.704 14.5678C265.477 14.5678 265.316 14.5035 265.222 14.3748C265.127 14.2248 265.08 14.0425 265.08 13.8281C265.08 13.5923 265.118 13.3886 265.193 13.2171C265.269 13.0456 265.468 12.8955 265.789 12.7669C266.13 12.6383 266.49 12.5418 266.868 12.4775C267.266 12.4132 267.568 12.381 267.777 12.381C268.004 12.381 268.117 12.4346 268.117 12.5418C268.117 12.6276 268.07 12.7026 267.975 12.7669C267.937 12.7883 267.881 12.8205 267.805 12.8634C267.748 12.9063 267.673 12.9491 267.578 12.992C267.445 13.0563 267.294 13.1421 267.124 13.2493C266.972 13.335 266.878 13.4422 266.84 13.5709C266.726 13.8496 266.565 14.0854 266.357 14.2784C266.149 14.4713 265.931 14.5678 265.704 14.5678ZM260.992 25.4373C260.462 25.4373 259.979 25.3194 259.544 25.0836C259.128 24.8478 258.919 24.3975 258.919 23.7329C258.919 23.0898 259.052 22.468 259.317 21.8677C259.582 21.2675 259.913 20.6993 260.31 20.1633C260.727 19.6274 261.124 19.1557 261.503 18.7484C261.825 18.4268 262.08 18.1695 262.269 17.9766C262.25 17.9551 262.241 17.9123 262.241 17.8479C262.241 17.6764 262.307 17.5049 262.44 17.3334C262.648 16.9904 262.988 16.701 263.462 16.4651C263.575 16.4222 263.689 16.4008 263.802 16.4008C264.048 16.4008 264.294 16.4651 264.54 16.5938C264.786 16.701 264.909 16.8832 264.909 17.1405C264.909 17.2905 264.862 17.4299 264.767 17.5585C264.673 17.6871 264.588 17.7836 264.512 17.8479C264.361 17.9766 264.124 18.2017 263.802 18.5233C263.499 18.8234 263.168 19.1772 262.809 19.5845C262.449 19.9704 262.099 20.3563 261.758 20.7422C261.437 21.1067 261.191 21.4175 261.02 21.6748C260.358 22.6395 260.027 23.3685 260.027 23.8616C260.027 24.076 260.102 24.2582 260.254 24.4083C260.424 24.5369 260.717 24.6012 261.134 24.6012C261.796 24.6012 262.449 24.4833 263.093 24.2475C263.755 23.9902 264.361 23.7008 264.909 23.3792C265.364 23.1219 265.789 22.8325 266.187 22.5109C266.603 22.1893 267.01 21.857 267.408 21.514C267.805 21.1495 268.202 20.7744 268.6 20.3885C269.016 20.0026 269.433 19.6167 269.849 19.2308C269.906 19.2093 269.972 19.1986 270.048 19.1986C270.199 19.1986 270.275 19.2736 270.275 19.4237C270.275 19.5523 270.228 19.6703 270.133 19.7774C270.019 19.949 269.783 20.2277 269.423 20.6136C269.064 20.9995 268.619 21.439 268.089 21.9321C267.578 22.4252 267.001 22.9075 266.357 23.3792C265.714 23.8508 265.051 24.2582 264.37 24.6012C264.01 24.7727 263.509 24.955 262.865 25.1479C262.222 25.3409 261.597 25.4373 260.992 25.4373Z" fill="#002434"/>
<path d="M253.09 30.8078C252.219 30.8078 251.585 30.5612 251.188 30.0681C250.79 29.575 250.592 28.9426 250.592 28.1708C250.592 27.3347 250.771 26.3914 251.131 25.3409C251.509 24.2903 252.002 23.2291 252.607 22.1572C253.232 21.0638 253.904 20.0561 254.623 19.1343C254.528 19.1557 254.433 19.1664 254.339 19.1664C254.244 19.1664 254.15 19.1664 254.055 19.1664C253.411 19.1664 252.872 18.9949 252.437 18.6519C252.248 18.9735 251.983 19.3272 251.642 19.7131C251.301 20.099 250.97 20.4421 250.648 20.7422C249.853 21.4926 249.011 22.2108 248.122 22.8968C247.232 23.5829 246.352 24.151 245.482 24.6012C244.611 25.0514 243.797 25.3087 243.04 25.373C242.983 25.373 242.908 25.3623 242.813 25.3409C242.7 25.3194 242.614 25.2765 242.558 25.2122C242.482 25.1479 242.463 25.0836 242.501 25.0193C242.539 24.9335 242.577 24.8799 242.614 24.8585C242.671 24.8156 242.737 24.7834 242.813 24.762C242.889 24.7191 242.993 24.687 243.125 24.6655C243.769 24.5155 244.479 24.2153 245.255 23.7651C246.03 23.2934 246.835 22.736 247.668 22.0929C248.519 21.4282 249.333 20.7315 250.109 20.0026C250.431 19.7238 250.762 19.413 251.103 19.07C251.443 18.7055 251.746 18.3732 252.011 18.073C251.822 17.73 251.727 17.3656 251.727 16.9797C251.727 16.4651 251.85 15.9506 252.096 15.4361C252.342 14.9215 252.654 14.4499 253.033 14.0211C253.411 13.5709 253.818 13.2171 254.254 12.9599C254.689 12.6811 255.096 12.5418 255.474 12.5418C255.683 12.5418 255.825 12.5954 255.9 12.7026C255.995 12.8098 256.042 12.9277 256.042 13.0563C256.042 13.335 255.957 13.5494 255.787 13.6995C255.654 13.8281 255.437 14.064 255.134 14.407C254.85 14.75 254.538 15.1359 254.197 15.5647C253.856 15.972 253.544 16.3794 253.26 16.7867C252.995 17.1726 252.815 17.4942 252.721 17.7515C252.777 17.8587 252.863 17.9551 252.976 18.0409C253.109 18.1266 253.326 18.1695 253.629 18.1695C254.083 18.1695 254.528 18.0623 254.963 17.8479C255.399 17.6335 255.806 17.3763 256.184 17.0761C256.298 17.0118 256.421 16.9797 256.553 16.9797C256.761 16.9797 256.96 17.0333 257.149 17.1405C257.357 17.2262 257.499 17.3227 257.575 17.4299C257.594 17.4513 257.604 17.4942 257.604 17.5585C257.604 17.7729 257.499 18.0302 257.291 18.3303C257.178 18.4804 257.045 18.6412 256.894 18.8127C256.761 18.9842 256.629 19.1557 256.496 19.3272C255.966 19.9918 255.418 20.7422 254.85 21.5783C254.301 22.393 253.799 23.2291 253.345 24.0867C252.891 24.9228 252.522 25.716 252.238 26.4664C251.954 27.2382 251.812 27.9028 251.812 28.4602C251.812 28.8676 251.907 29.1891 252.096 29.425C252.304 29.6822 252.654 29.8109 253.147 29.8109C253.241 29.8109 253.345 29.8002 253.459 29.7787C253.591 29.7787 253.724 29.768 253.856 29.7466C254.329 29.6608 254.869 29.4679 255.474 29.1677C256.08 28.8676 256.686 28.5138 257.291 28.1065C257.897 27.7206 258.417 27.3668 258.853 27.0453C258.89 27.0024 258.957 26.9809 259.051 26.9809C259.184 26.9809 259.26 27.0453 259.278 27.1739V27.2382C259.278 27.3454 259.222 27.4633 259.108 27.5919C259.07 27.6348 259.004 27.6991 258.909 27.7849C258.815 27.8921 258.692 28.0207 258.54 28.1708C257.935 28.7711 257.263 29.2963 256.525 29.7466C255.787 30.2182 255.011 30.5291 254.197 30.6792C254.008 30.7006 253.818 30.722 253.629 30.7435C253.44 30.7863 253.26 30.8078 253.09 30.8078Z" fill="#002434"/>
<path d="M242.425 25.5338C241.516 25.5338 240.892 25.3087 240.551 24.8585C240.21 24.4083 240.04 23.8508 240.04 23.1862C240.04 22.8647 240.078 22.5323 240.153 22.1893C240.229 21.8249 240.314 21.4818 240.409 21.1603C240.106 21.5247 239.737 21.9428 239.302 22.4144C238.885 22.8861 238.422 23.347 237.911 23.7972C237.419 24.2475 236.927 24.6226 236.435 24.9228C235.943 25.2015 235.469 25.3409 235.015 25.3409C234.447 25.3409 233.984 25.0621 233.624 24.5047C233.397 24.1188 233.283 23.7222 233.283 23.3149C233.283 22.8218 233.397 22.3501 233.624 21.8999C233.87 21.4282 234.145 20.978 234.447 20.5492C234.769 20.099 235.044 19.6917 235.271 19.3272C235.706 18.5983 236.075 17.9015 236.378 17.2369C236.681 16.5723 236.832 16.0363 236.832 15.629C236.832 15.3932 236.766 15.2109 236.633 15.0823C236.406 14.8894 236.293 14.6643 236.293 14.407C236.293 14.2355 236.378 14.1497 236.548 14.1497C236.662 14.1497 236.804 14.214 236.974 14.3427C237.106 14.4284 237.248 14.5463 237.4 14.6964C237.551 14.8465 237.693 15.018 237.826 15.2109C237.901 15.2967 237.968 15.3825 238.024 15.4682C238.081 15.554 238.138 15.6397 238.195 15.7255C238.233 15.8327 238.27 15.9506 238.308 16.0792C238.346 16.1864 238.365 16.3151 238.365 16.4651C238.365 16.8081 238.261 17.1833 238.053 17.5907C237.845 17.998 237.58 18.4375 237.258 18.9092C236.955 19.3808 236.633 19.8632 236.293 20.3563C236.141 20.5707 235.905 20.9351 235.583 21.4497C235.28 21.9428 235.006 22.4359 234.76 22.929C234.646 23.1862 234.542 23.4221 234.447 23.6365C234.372 23.8508 234.334 24.0438 234.334 24.2153C234.334 24.494 234.476 24.6334 234.76 24.6334C235.025 24.6334 235.346 24.5155 235.725 24.2796C236.122 24.0224 236.501 23.7436 236.86 23.4435C237.22 23.1219 237.485 22.8861 237.655 22.736C238.261 22.1572 238.885 21.5569 239.529 20.9351C240.191 20.292 240.825 19.681 241.431 19.1021C241.526 19.0164 241.649 18.9735 241.8 18.9735C242.065 18.9735 242.273 19.0592 242.425 19.2307C242.5 19.2951 242.538 19.413 242.538 19.5845C242.538 19.9275 242.387 20.4206 242.084 21.0638C242.008 21.2567 241.923 21.4604 241.828 21.6748C241.734 21.8677 241.649 22.0714 241.573 22.2858C241.497 22.5002 241.421 22.7039 241.346 22.8968C241.289 23.0898 241.251 23.2827 241.232 23.4757C241.213 23.54 241.204 23.6043 241.204 23.6686C241.204 23.7329 241.204 23.7972 241.204 23.8616C241.204 24.2046 241.289 24.4404 241.459 24.569C241.63 24.6762 241.838 24.7298 242.084 24.7298C242.443 24.7298 242.813 24.6655 243.191 24.5369C243.588 24.3868 243.91 24.2689 244.156 24.1831C245.121 23.7544 246.096 23.1755 247.08 22.4466C248.083 21.7177 248.982 20.9887 249.777 20.2598C249.966 20.0669 250.146 19.8954 250.317 19.7453C250.506 19.5952 250.695 19.413 250.884 19.1986C251.017 19.0485 251.121 18.9628 251.197 18.9413H251.253C251.405 18.9413 251.452 19.0378 251.395 19.2307C251.357 19.4023 251.282 19.5738 251.168 19.7453C250.998 20.0669 250.686 20.4742 250.231 20.9673C249.777 21.439 249.228 21.9428 248.585 22.4788C247.96 22.9933 247.288 23.4864 246.569 23.958C245.85 24.4297 245.131 24.8156 244.412 25.1157C243.693 25.3945 243.03 25.5338 242.425 25.5338Z" fill="#002434"/>
<path d="M226.651 25.5338C226.083 25.5338 225.563 25.373 225.089 25.0514C224.635 24.7084 224.408 24.0974 224.408 23.2184C224.408 22.8968 224.446 22.5645 224.522 22.2215C224.597 21.857 224.683 21.5033 224.777 21.1603C224.455 21.5247 224.058 21.9535 223.585 22.4466C223.112 22.9182 222.591 23.3792 222.023 23.8294C221.475 24.2796 220.916 24.6548 220.349 24.955C219.8 25.2337 219.279 25.373 218.787 25.373C218.182 25.373 217.69 25.1265 217.311 24.6334C217.046 24.3118 216.914 23.8937 216.914 23.3792C216.914 22.7575 217.103 22.0714 217.481 21.321C217.879 20.5492 218.409 19.7882 219.071 19.0378C219.752 18.2874 220.519 17.6014 221.371 16.9797C222.241 16.3579 223.14 15.8648 224.067 15.5004C225.071 15.093 225.96 14.8894 226.736 14.8894C228.099 14.8894 228.78 15.554 228.78 16.8832C228.78 16.9689 228.77 17.0761 228.752 17.2048C228.752 17.312 228.742 17.4299 228.723 17.5585C228.629 17.9873 228.487 18.2767 228.297 18.4268C228.278 18.4482 228.231 18.4804 228.155 18.5233C228.08 18.5447 228.013 18.5125 227.957 18.4268C227.9 18.3196 227.89 18.1695 227.928 17.9766C227.985 17.7407 228.013 17.5371 228.013 17.3656C228.013 16.7653 227.72 16.4651 227.133 16.4651C226.812 16.4651 226.405 16.5402 225.913 16.6902C225.421 16.8403 224.891 17.044 224.323 17.3012C223.774 17.5371 223.244 17.7943 222.733 18.073C222.241 18.3518 221.825 18.6305 221.484 18.9092C220.614 19.6166 219.847 20.3992 219.185 21.2567C218.541 22.0928 218.172 22.8218 218.078 23.4435C218.059 23.5078 218.049 23.5721 218.049 23.6365C218.049 23.7008 218.049 23.7544 218.049 23.7972C218.049 24.1188 218.106 24.3332 218.219 24.4404C218.352 24.5476 218.503 24.6012 218.674 24.6012C218.995 24.6012 219.364 24.494 219.781 24.2796C220.197 24.0438 220.585 23.7865 220.945 23.5078C221.323 23.2291 221.588 23.0147 221.74 22.8647C222.326 22.2858 222.989 21.6641 223.727 20.9995C224.484 20.3134 225.156 19.681 225.742 19.1021C225.856 19.0378 225.998 19.0056 226.168 19.0056C226.471 19.0056 226.708 19.0807 226.878 19.2307C226.954 19.2951 226.991 19.4237 226.991 19.6166C226.991 19.8739 226.906 20.1955 226.736 20.5814C226.433 21.3103 226.178 21.9642 225.969 22.5431C225.761 23.1005 225.657 23.5614 225.657 23.9259C225.657 24.4619 225.922 24.7298 226.452 24.7298C226.868 24.7298 227.54 24.5476 228.468 24.1831C229.433 23.7758 230.408 23.2077 231.392 22.4788C232.395 21.7498 233.294 21.0102 234.089 20.2598C234.183 20.1526 234.278 20.0669 234.372 20.0025C234.467 19.9382 234.552 19.8632 234.628 19.7774C234.723 19.7131 234.808 19.6381 234.883 19.5523C234.978 19.4666 235.082 19.3808 235.196 19.2951C235.309 19.2522 235.385 19.2307 235.423 19.2307C235.555 19.2307 235.622 19.3058 235.622 19.4559C235.622 19.5845 235.574 19.7024 235.48 19.8096C235.366 19.9811 235.092 20.292 234.656 20.7422C234.221 21.1924 233.682 21.6962 233.038 22.2536C232.414 22.8111 231.723 23.347 230.966 23.8616C230.228 24.3761 229.48 24.7834 228.723 25.0836C228.439 25.1908 228.108 25.2873 227.73 25.373C227.37 25.4802 227.01 25.5338 226.651 25.5338Z" fill="#002434"/>
<path d="M212.999 31.7082C212.241 31.7082 211.607 31.4831 211.096 31.0329C210.604 30.5827 210.235 29.9717 209.989 29.1999C209.762 28.4495 209.649 27.6348 209.649 26.7558C209.649 23.9259 210.131 20.7851 211.096 17.3334C212.081 13.8817 213.509 10.3872 215.383 6.84975C214.891 7.10702 214.285 7.56795 213.566 8.23256C212.847 8.87573 212.071 9.63681 211.238 10.5158C210.425 11.3948 209.601 12.3167 208.769 13.2814C207.936 14.2247 207.15 15.1573 206.412 16.0792C205.693 16.9797 205.069 17.7836 204.539 18.4911C204.028 19.1771 203.678 19.7024 203.488 20.0669C203.337 20.3027 203.138 20.4206 202.892 20.4206C202.589 20.4206 202.306 20.2598 202.041 19.9382C201.776 19.5952 201.643 19.2522 201.643 18.9092C201.643 18.7805 201.738 18.5447 201.927 18.2017C202.003 18.0302 202.088 17.8479 202.182 17.655C202.296 17.4406 202.419 17.2155 202.552 16.9797C202.816 16.4866 203.1 15.9399 203.403 15.3396C203.706 14.7393 203.99 14.1283 204.255 13.5065C204.368 13.2064 204.529 12.8098 204.737 12.3167C204.946 11.8021 205.154 11.2555 205.362 10.6766C205.589 10.0763 205.769 9.48674 205.901 8.90789C206.053 8.32904 206.128 7.83594 206.128 7.4286C206.128 6.78543 205.93 6.46385 205.532 6.46385C205.248 6.46385 204.775 6.6568 204.113 7.0427C203.242 7.60011 202.315 8.39335 201.331 9.42242C200.366 10.4301 199.4 11.5985 198.435 12.9277C197.47 14.2355 196.552 15.629 195.682 17.1083C194.83 18.5876 194.073 20.0669 193.41 21.5462C192.748 23.004 192.237 24.3868 191.877 25.6946C191.764 25.8661 191.603 26.0376 191.395 26.2091C191.187 26.3806 190.979 26.4664 190.77 26.4664C190.581 26.4664 190.42 26.3806 190.288 26.2091C190.155 26.0376 190.089 25.7803 190.089 25.4373C190.089 25.2444 190.136 25.0085 190.231 24.7298C190.269 24.6012 190.316 24.4619 190.373 24.3118C190.43 24.1617 190.477 24.0116 190.515 23.8616C190.609 23.6043 190.855 23.0254 191.253 22.125C191.669 21.2246 192.171 20.1526 192.758 18.9092C193.344 17.6443 193.988 16.2507 194.688 14.7286C195.388 13.2064 196.079 11.6735 196.76 10.1299C197.233 9.05796 197.631 7.97529 197.953 6.88191C198.274 5.76708 198.435 4.77017 198.435 3.89117C198.435 3.01217 198.199 2.29397 197.725 1.73656C197.252 1.17914 196.401 0.900436 195.171 0.900436C193.41 0.900436 191.575 1.11483 189.663 1.54361C187.771 1.95095 185.869 2.51908 183.957 3.248C182.065 3.97693 180.219 4.82377 178.421 5.78852C176.642 6.75327 174.986 7.80378 173.453 8.94005C171.92 10.0549 170.577 11.2019 169.422 12.381C168.268 13.5601 167.369 14.7286 166.725 15.8863C166.082 17.044 165.76 18.1481 165.76 19.1986C165.76 19.3272 165.76 19.4559 165.76 19.5845C165.779 19.6917 165.798 19.7989 165.817 19.9061C165.911 20.5064 166.139 20.9244 166.498 21.1603C166.877 21.3746 167.303 21.4818 167.776 21.4818C168.173 21.4818 168.589 21.439 169.025 21.3532C169.479 21.246 169.886 21.1388 170.245 21.0316C170.283 21.0316 170.312 21.0316 170.331 21.0316C170.368 21.0102 170.397 20.9995 170.416 20.9995C170.529 20.9995 170.633 21.0209 170.728 21.0638C170.823 21.1067 170.908 21.1495 170.984 21.1924C171.097 21.2782 171.154 21.3746 171.154 21.4818C171.154 21.6533 171.05 21.7713 170.842 21.8356C169.933 22.2 168.959 22.3823 167.918 22.3823C167.255 22.3823 166.621 22.2751 166.016 22.0607C165.429 21.8463 164.946 21.4818 164.568 20.9673C164.189 20.4528 164 19.7667 164 18.9092C164 17.7943 164.35 16.6259 165.05 15.4039C165.751 14.1819 166.725 12.9599 167.974 11.7378C169.223 10.5158 170.671 9.33667 172.318 8.2004C173.964 7.0427 175.734 5.97075 177.626 4.98456C179.538 3.97693 181.506 3.10865 183.531 2.37972C185.556 1.62936 187.572 1.05051 189.578 0.64317C191.584 0.21439 193.496 0 195.312 0C197.073 0 198.322 0.353743 199.06 1.06123C199.798 1.74727 200.167 2.67987 200.167 3.85901C200.167 4.78089 199.987 5.79924 199.628 6.91406C199.287 8.00745 198.842 9.14372 198.293 10.3229C198.009 10.9446 197.735 11.5234 197.47 12.0594C197.224 12.5954 196.987 13.0992 196.76 13.5709C197.536 12.4989 198.341 11.4591 199.173 10.4515C200.025 9.44386 200.877 8.54343 201.728 7.75018C202.58 6.95694 203.403 6.32449 204.198 5.85284C205.012 5.38118 205.769 5.14535 206.469 5.14535C207.056 5.14535 207.472 5.32758 207.718 5.69204C207.964 6.03507 208.087 6.48529 208.087 7.0427C208.087 7.66443 207.964 8.38263 207.718 9.19731C207.472 9.99056 207.179 10.7838 206.838 11.577C206.516 12.3488 206.214 13.0242 205.93 13.603C205.665 14.1604 205.409 14.6964 205.163 15.2109C204.917 15.704 204.671 16.1971 204.425 16.6902C205.031 16.0042 205.778 15.1466 206.668 14.1176C207.576 13.0885 208.532 12.0165 209.535 10.9017C210.368 10.0013 211.21 9.11156 212.062 8.23256C212.913 7.35356 213.756 6.5496 214.588 5.82068C215.421 5.07031 216.197 4.47002 216.916 4.0198C217.124 3.89117 217.351 3.93405 217.597 4.14844C217.862 4.34139 218.042 4.55578 218.137 4.79161C218.175 4.92024 218.194 5.04888 218.194 5.17751C218.194 5.43478 218.137 5.74564 218.023 6.1101C217.91 6.45313 217.72 6.78543 217.455 7.10702C216.528 8.28616 215.686 9.69041 214.929 11.3198C214.172 12.9277 213.519 14.6214 212.97 16.4008C212.44 18.1588 212.033 19.8846 211.749 21.5783C211.466 23.272 211.324 24.7942 211.324 26.1448C211.324 27.5169 211.475 28.5996 211.778 29.3928C212.1 30.2075 212.563 30.6148 213.169 30.6148C213.585 30.6148 214.058 30.4969 214.588 30.2611C215.118 30.0253 215.648 29.7251 216.178 29.3607C216.708 29.0176 217.162 28.6746 217.541 28.3316C217.579 28.2887 217.626 28.2673 217.683 28.2673C217.758 28.2673 217.806 28.2994 217.825 28.3637C217.862 28.4281 217.891 28.4817 217.91 28.5245V28.621C217.91 28.7282 217.881 28.8354 217.825 28.9426C217.749 29.0498 217.569 29.2427 217.285 29.5214C217.001 29.8216 216.642 30.1325 216.206 30.454C215.771 30.7971 215.279 31.0865 214.73 31.3223C214.181 31.5796 213.604 31.7082 212.999 31.7082Z" fill="#002434"/>
<path d="M136.949 18.8145L137.581 19.5512L137.804 18.5549C138.163 16.95 139.589 15.9917 141.119 15.9782C142.623 15.9648 144.178 16.8808 144.689 19.0376C145.363 21.8907 143.889 25.2739 139.876 29.2513C134.645 28.0809 131.874 25.9851 131.2 23.1319C130.689 20.9752 131.632 19.3009 132.941 18.4604C134.272 17.6056 135.93 17.6278 136.949 18.8145Z" stroke="#206D7F"/>
<path fill-rule="evenodd" clip-rule="evenodd" d="M147.14 12.3078L147.56 14.3046L148.841 12.854C150.067 11.4668 152.053 11.446 153.675 12.5232C155.253 13.5707 156.389 15.6261 155.724 18.2855C154.848 21.7871 151.401 24.4187 144.673 25.8453C144.406 25.5709 144.148 25.2992 143.9 25.0299C143.736 25.3107 143.557 25.594 143.365 25.88C143.695 26.2337 144.039 26.5903 144.396 26.9497C151.543 25.5335 155.636 22.7478 156.676 18.5912C158.11 12.8574 152.338 9.13971 148.917 11.4274C148.625 11.6223 148.351 11.8607 148.1 12.1451C148.018 11.7536 147.894 11.3876 147.737 11.0486C145.884 7.06805 139.248 6.80275 137.813 12.5365C137.45 13.9882 137.482 15.519 137.907 17.1288C138.134 16.8039 138.407 16.5234 138.713 16.2903C138.472 15.0642 138.497 13.9161 138.766 12.8422C139.431 10.1827 141.35 9.10782 143.178 9.15371C145.058 9.20089 146.739 10.3985 147.14 12.3078Z" fill="#206D7F"/>
</svg>
