<svg width="38" height="38" viewBox="0 0 38 38" fill="none" xmlns="http://www.w3.org/2000/svg">
<path d="M28.2834 18.2697C28.9246 19.6086 29.2838 21.1108 29.2838 22.6931C29.2838 28.3723 24.6823 32.9739 19.0031 32.9739C13.3238 32.9739 8.72229 28.3723 8.72229 22.6931C8.72229 21.1078 9.0815 19.6086 9.72275 18.2697C8.37532 20.1785 7.65337 22.4585 7.6565 24.795C7.6565 31.062 12.736 36.1416 19.0031 36.1416C25.2701 36.1416 30.3496 31.062 30.3496 24.795C30.3495 22.459 29.6278 20.18 28.2834 18.2697Z" fill="#4B8A99"/>
<path d="M9.63068 14.1906C4.45318 19.3652 4.45318 27.7548 9.63068 32.9323C14.8052 38.1069 23.1949 38.1069 28.3724 32.9323C33.5499 27.7578 33.5469 19.3681 28.3724 14.1906C23.1949 9.01609 14.8052 9.01609 9.63068 14.1906ZM26.1221 31.8072C22.0846 35.8447 15.5415 35.8447 11.504 31.8072C7.46647 27.7697 7.46647 21.2266 11.504 17.1891C15.5415 13.1516 22.0846 13.1516 26.1221 17.1891C30.1596 21.2266 30.1596 27.7697 26.1221 31.8072Z" fill="#BDBDBD"/>
<path d="M11.2634 6.17203L13.5642 2.68375L15.3455 4.72031L11.2634 6.17203Z" fill="#64B5F6"/>
<path d="M16.5389 8.84687L11.2634 6.17203L15.3455 4.72031L16.5389 8.84687Z" fill="#81D4FA"/>
<path d="M19.1484 5.53077L15.3455 4.72031L16.5389 8.84687L19.1484 5.53077Z" fill="white"/>
<path d="M27.0364 6.17203L24.7356 2.68375L22.9543 4.72031L27.0364 6.17203Z" fill="#1E88E5"/>
<path d="M21.7581 8.84687L27.0365 6.17203L22.9545 4.72031L21.7581 8.84687Z" fill="#B3E5FC"/>
<path d="M19.1484 5.53077L22.9544 4.72031L21.758 8.84687L19.1484 5.53077Z" fill="white"/>
<path d="M21.7579 8.84689L19.1483 5.53079L16.5388 8.84689H21.7579Z" fill="#B2EBF2"/>
<path d="M16.3934 1.1875H21.9064L24.7356 2.68375L22.9544 4.72031L19.1484 5.53078L15.3455 4.72031L13.5642 2.68375L16.3934 1.1875Z" fill="#B3E5FC"/>
<path d="M19.1484 13.9798L11.2634 6.17203L16.5389 8.84687L19.1484 13.9798Z" fill="#1E88E5"/>
<path d="M19.1484 13.9798L27.0364 6.17203L21.758 8.84687L19.1484 13.9798Z" fill="#81D4FA"/>
<path d="M21.7579 8.84686L19.1483 13.9798L16.5388 8.84686H21.7579Z" fill="#E1F5FE"/>
<path d="M10.1087 15.2119C10.9726 15.4939 10.459 16.3014 10.2779 16.4795C9.56837 17.1802 9.37837 17.6344 8.93602 18.3677C8.47587 19.1277 7.93852 19.1662 7.71883 18.712C7.11915 17.4681 9.0993 14.8794 10.1087 15.2119ZM25.8727 33.0659C24.3409 33.9981 23.7916 33.6241 24.1835 33.3628C25.659 32.3772 27.6391 31.0056 28.8682 27.1997C28.9543 26.9295 29.2452 26.7366 29.5124 26.8316C29.7559 26.9177 29.8984 27.1759 29.8301 27.4223C28.8118 31.16 27.1048 32.3148 25.8727 33.0659Z" fill="white"/>
<path d="M24.3912 8.8172L20.4131 12.7181L19.8282 12.6617L19.947 10.0789C19.947 9.57423 19.6323 9.20017 19.1513 9.20017C18.6674 9.20017 18.3795 9.57423 18.3795 10.0789L18.4982 12.6617L17.9134 12.7181L13.9323 8.8172C13.9323 8.8172 12.8962 9.26548 13.8907 10.2511C15.0159 11.3644 17.7798 14.0036 17.7798 14.0036H20.5407C20.5407 14.0036 23.3076 11.3644 24.4298 10.2511C25.4273 9.26548 24.3912 8.8172 24.3912 8.8172Z" fill="#BDBDBD"/>
<path d="M24.3823 8.80234L21.1404 12.0056C20.8643 12.2758 20.992 12.7478 21.369 12.8369C22.2151 13.0328 23.6045 13.5405 25.4807 14.8556C26.7454 15.7433 27.4638 15.5859 27.737 15.0812C28.0813 14.4459 27.8053 13.6295 27.1907 13.1427C25.2343 11.593 23.5481 11.112 23.5481 11.112C23.8657 10.8062 24.1745 10.5094 24.4328 10.2511C25.4273 9.26546 24.3823 8.80234 24.3823 8.80234Z" fill="#8E8E8E"/>
</svg>
