<svg width="28" height="29" viewBox="0 0 28 29" fill="none" xmlns="http://www.w3.org/2000/svg">
<path d="M7.93332 12.8931L8.57155 13.7602L8.7962 12.5876C9.16515 10.6617 10.6014 9.5809 12.0877 9.56553C13.5698 9.5502 15.1696 10.6119 15.6957 13.2068C16.3851 16.6067 14.8757 20.5792 10.8898 25.1941C5.69227 23.8324 2.8818 21.3883 2.19244 17.9884C1.6663 15.3934 2.65005 13.4169 3.93941 12.4509C5.23237 11.4821 6.88513 11.469 7.93332 12.8931Z" stroke="#206D7F"/>
<path fill-rule="evenodd" clip-rule="evenodd" d="M18.1583 5.24283L18.5808 7.58867L19.8716 5.88442C21.156 4.18879 23.1312 4.24053 24.6807 5.44058C26.2215 6.63388 27.4378 9.0797 26.7391 12.3379C25.8332 16.563 22.3078 19.6309 15.643 21.2891C15.3679 20.9584 15.1026 20.6306 14.8468 20.3057C14.6974 20.5987 14.5368 20.8941 14.365 21.1919C14.6947 21.6045 15.0386 22.0205 15.3964 22.4397C22.5429 20.7876 26.6359 17.5377 27.6756 12.6886C29.1158 5.97218 23.2902 1.62702 19.8748 4.36445C19.599 4.58549 19.339 4.8527 19.0997 5.16858C19.0214 4.73378 18.9061 4.32599 18.759 3.94662C16.938 -0.751695 10.2535 -1.09121 8.8134 5.62521C8.45026 7.3188 8.48158 9.1047 8.9074 10.9828C9.1253 10.6174 9.38686 10.3002 9.67967 10.0343C9.44798 8.60305 9.47637 7.25153 9.74989 5.9759C10.4485 2.71769 12.4549 1.47868 14.2403 1.53096C16.0359 1.58352 17.738 2.90887 18.1583 5.24283Z" fill="#206D7F"/>
</svg>
